<svg xmlns="http://www.w3.org/2000/svg" xmlns:svg="http://www.w3.org/2000/svg" id="svg3827" width="16" height="16" version="1.1"><metadata id="metadata3832"/><g id="layer1" transform="translate(0,-1036.3622)"><g id="wetland-13" transform="translate(-8.6761198,999.99394)"><rect style="opacity:0;color:#000;fill:#164d75;fill-opacity:.32444446;fill-rule:nonzero;stroke:none;stroke-width:1;marker:none;visibility:visible;display:inline;overflow:visible;enable-background:accumulate" id="rect9135" width="16" height="16" x="8.676" y="36.368" rx="0" ry="0"/><rect style="opacity:.7;fill:#1f68a0;fill-opacity:.37777782" id="rect9139" width="8" height="1" x="16.676" y="39.368"/><path style="color:#000;fill:#1f68a0;fill-opacity:.32941176;fill-rule:nonzero;stroke-width:1.34776735;stroke-linecap:butt;stroke-linejoin:miter;stroke-miterlimit:4;stroke-opacity:1;stroke-dasharray:none;stroke-dashoffset:0;marker:none;visibility:visible;display:inline;overflow:visible;enable-background:accumulate" id="path9145" d="m 21.17612,36.36826 -1.25,2 -1.25,-1 0.625,2 1.875,0 1.875,0 0.625,-2 -1.25,1 -1.25,-2 z"/><path style="color:#000;fill:#1f68a0;fill-opacity:.32941176;fill-rule:nonzero;stroke-width:1.34776735;stroke-linecap:butt;stroke-linejoin:miter;stroke-miterlimit:4;stroke-opacity:1;stroke-dasharray:none;stroke-dashoffset:0;marker:none;visibility:visible;display:inline;overflow:visible;enable-background:accumulate" id="path9155" d="m 12.17612,41.86826 -1.012048,1.666667 -0.987952,-0.833334 0.506024,1.666667 1.493976,0 1.493976,0 0.506024,-1.666667 -1.012048,0.833334 -0.987952,-1.666667 z"/><rect style="opacity:.7;fill:#1f68a0;fill-opacity:.37777782" id="rect9175" width="4" height="1" x="20.676" y="45.368"/><path style="color:#000;fill:#1f68a0;fill-opacity:.32941176;fill-rule:nonzero;stroke-width:1.34776735;stroke-linecap:butt;stroke-linejoin:miter;stroke-miterlimit:4;stroke-opacity:1;stroke-dasharray:none;stroke-dashoffset:0;marker:none;visibility:visible;display:inline;overflow:visible;enable-background:accumulate" id="path9181" d="m 18.17612,47.36826 -1.25,2 -1.25,-1 0.625,2 1.875,0 1.875,0 0.625,-2 -1.25,1 -1.25,-2 z"/><rect id="rect9187" width="4" height="1" x="8.676" y="51.368" style="opacity:.7;fill:#1f68a0;fill-opacity:.37777782"/><rect id="rect9235" width="2" height="1" x="8.676" y="45.368" style="opacity:.7;fill:#1f68a0;fill-opacity:.37777782"/></g></g></svg>