<svg xmlns="http://www.w3.org/2000/svg" xmlns:svg="http://www.w3.org/2000/svg" id="svg8868" width="64" height="64" version="1.1"><metadata id="metadata8873"/><g id="layer1" transform="translate(0,-988.36218)"><g id="wetland-15" transform="translate(-8.6761246,951.99392)"><rect style="opacity:0;color:#000;fill:#164d75;fill-opacity:.32444446;fill-rule:nonzero;stroke:none;stroke-width:1;marker:none;visibility:visible;display:inline;overflow:visible;enable-background:accumulate" id="rect7731" width="64" height="64" x="8.676" y="36.368" rx="0" ry="0"/><rect style="fill:#1f68a0;fill-opacity:.37777782" id="rect7735" width="10" height="1" x="13.676" y="44.368"/><path style="fill:#1f68a0;fill-opacity:.37777782" id="path7741" d="m 19.180926,44.368258 -3.495195,-2.666666 0.873799,2.666666 z"/><path style="fill:#1f68a0;fill-opacity:.37777782" id="path7743" d="m 19.180926,44.368258 1.747597,-1.333333 -1.747597,-2.666667 -1.747597,2.666667 z"/><path id="path7745" d="m 19.180926,44.368258 3.495194,-2.666666 -0.873799,2.666666 z" style="fill:#1f68a0;fill-opacity:.37777782"/><path style="fill:#1f68a0;fill-opacity:.37777782" id="path7751" d="m 39.67612,48.368261 -3,-2.319282 0.75,2.319282 z"/><path style="fill:#1f68a0;fill-opacity:.37777782" id="path7753" d="m 39.67612,48.368261 1.5,-1.159641 -1.5,-2.319281 -1.5,2.319281 z"/><path id="path7755" d="m 39.67612,48.368261 3,-2.319282 -0.75,2.319282 z" style="fill:#1f68a0;fill-opacity:.37777782"/><rect id="rect7759" width="18" height="1" x="24.676" y="68.368" style="opacity:.8;fill:#1f68a0;fill-opacity:.37777782"/><path id="path7765" d="m 37.178049,68.368261 -3.99807,-3.068287 0.999517,3.068287 z" style="fill:#1f68a0;fill-opacity:.37777782"/><path id="path7767" d="m 37.178049,68.368261 1.999035,-1.534144 -1.999035,-3.068286 -1.999035,3.068286 z" style="fill:#1f68a0;fill-opacity:.37777782"/><path style="fill:#1f68a0;fill-opacity:.37777782" id="path7769" d="m 37.178049,68.368261 3.998071,-3.068287 -0.999518,3.068287 z"/><rect style="opacity:.8;fill:#1f68a0;fill-opacity:.37777782" id="rect7771" width="11" height="1" x="61.676" y="76.368"/><path id="path6588-3" d="m 64.676122,56.368255 -3.999997,-3.048728 0.999999,3.048728 z" style="color:#000;fill:#1f68a0;fill-opacity:.32941176;fill-rule:nonzero;stroke-width:1.34776735;stroke-linecap:butt;stroke-linejoin:miter;stroke-miterlimit:4;stroke-opacity:1;stroke-dasharray:none;stroke-dashoffset:0;marker:none;visibility:visible;display:inline;overflow:visible;enable-background:accumulate"/><path id="path6590-1" d="m 64.676122,56.368255 1.999999,-1.524364 -1.999999,-3.048728 -1.999999,3.048728 z" style="color:#000;fill:#1f68a0;fill-opacity:.32941176;fill-rule:nonzero;stroke-width:1.34776735;stroke-linecap:butt;stroke-linejoin:miter;stroke-miterlimit:4;stroke-opacity:1;stroke-dasharray:none;stroke-dashoffset:0;marker:none;visibility:visible;display:inline;overflow:visible;enable-background:accumulate"/><path style="color:#000;fill:#1f68a0;fill-opacity:.32941176;fill-rule:nonzero;stroke-width:1.34776735;stroke-linecap:butt;stroke-linejoin:miter;stroke-miterlimit:4;stroke-opacity:1;stroke-dasharray:none;stroke-dashoffset:0;marker:none;visibility:visible;display:inline;overflow:visible;enable-background:accumulate" id="path6592-3" d="m 64.676122,56.368255 3.999998,-3.048728 -0.999999,3.048728 z"/><rect id="rect9042" width="11" height="1" x="16.676" y="91.368" style="opacity:.8;fill:#1f68a0;fill-opacity:.37777782"/><rect id="rect9046" width="10" height="1" x="49.676" y="93.368" style="fill:#1f68a0;fill-opacity:.37777782"/><path id="path9052" d="m 55.180926,93.368258 -3.495195,-2.666666 0.873799,2.666666 z" style="fill:#1f68a0;fill-opacity:.37777782"/><path id="path9054" d="m 55.180926,93.368258 1.747597,-1.333333 -1.747597,-2.666667 -1.747597,2.666667 z" style="fill:#1f68a0;fill-opacity:.37777782"/><path style="fill:#1f68a0;fill-opacity:.37777782" id="path9056" d="m 55.180926,93.368258 3.495194,-2.666666 -0.873799,2.666666 z"/></g></g></svg>