<svg xmlns="http://www.w3.org/2000/svg" xmlns:xlink="http://www.w3.org/1999/xlink" id="Layer_1" x="0" y="0" enable-background="new 0 0 6 6" version="1.1" viewBox="0 0 6 6" xml:space="preserve"><path fill="#FFF" d="M3,0C1.3,0,0,1.3,0,3s1.3,3,3,3s3-1.3,3-3S4.7,0,3,0z M3,5.2c-1.2,0-2.2-1-2.2-2.2	c0-1.2,1-2.2,2.2-2.2c1.2,0,2.2,1,2.2,2.2C5.2,4.2,4.2,5.2,3,5.2z" opacity=".5"/><circle cx="3" cy="3" r="1.2" fill="#FFF"/><path d="M3,0.8c-1.2,0-2.2,1-2.2,2.2c0,1.2,1,2.2,2.2,2.2c1.2,0,2.2-1,2.2-2.2C5.2,1.8,4.2,0.8,3,0.8z M3,4.2C2.3,4.2,1.8,3.7,1.8,3	S2.3,1.8,3,1.8S4.2,2.3,4.2,3S3.7,4.2,3,4.2z"/></svg>