<svg xmlns="http://www.w3.org/2000/svg" xmlns:svg="http://www.w3.org/2000/svg" id="svg4460" width="24" height="24" version="1.1"><metadata id="metadata4465"/><g id="layer1" transform="translate(0,-1028.3622)"><g style="display:inline" id="america-football-24" transform="translate(-474,-70)"><g id="g11331" transform="translate(474,94)" style="display:inline"><path id="path14975" d="m 372.5,53 c -6.5,0 -9.5,6.5 -9.5,6.5 0,0 3,6.5 9.5,6.5 6.5,0 9.5,-6.5 9.5,-6.5 0,0 -3,-6.5 -9.5,-6.5 z" transform="translate(-360,956.3622)" style="opacity:.3;color:#000;fill:#fff;fill-opacity:1;fill-rule:nonzero;stroke:#fff;stroke-width:2;stroke-linecap:butt;stroke-linejoin:miter;stroke-miterlimit:4;stroke-opacity:1;stroke-dasharray:none;stroke-dashoffset:0;marker:none;visibility:visible;display:inline;overflow:visible;enable-background:accumulate"/><path style="color:#000;fill:#444;fill-opacity:1;fill-rule:nonzero;stroke:none;stroke-width:2;marker:none;visibility:visible;display:inline;overflow:visible;enable-background:accumulate" id="path14961" d="m 372.5,53 c -6.5,0 -9.5,6.5 -9.5,6.5 0,0 3,6.5 9.5,6.5 6.5,0 9.5,-6.5 9.5,-6.5 0,0 -3,-6.5 -9.5,-6.5 z m -3,5 c 0.277,0 0.5,0.223 0.5,0.5 l 0,0.5 2,0 0,-0.5 c 0,-0.277 0.223,-0.5 0.5,-0.5 0.277,0 0.5,0.223 0.5,0.5 l 0,0.5 2,0 0,-0.5 c 0,-0.277 0.223,-0.5 0.5,-0.5 0.277,0 0.5,0.223 0.5,0.5 l 0,0.5 1.5,0 c 0.277,0 0.5,0.223 0.5,0.5 0,0.277 -0.223,0.5 -0.5,0.5 l -1.5,0 0,0.5 c 0,0.277 -0.223,0.5 -0.5,0.5 -0.277,0 -0.5,-0.223 -0.5,-0.5 l 0,-0.5 -2,0 0,0.5 c 0,0.277 -0.223,0.5 -0.5,0.5 -0.277,0 -0.5,-0.223 -0.5,-0.5 l 0,-0.5 -2,0 0,0.5 c 0,0.277 -0.223,0.5 -0.5,0.5 -0.277,0 -0.5,-0.223 -0.5,-0.5 l 0,-0.5 -1.5,0 c -0.277,0 -0.5,-0.223 -0.5,-0.5 0,-0.277 0.223,-0.5 0.5,-0.5 l 1.5,0 0,-0.5 c 0,-0.277 0.223,-0.5 0.5,-0.5 z" transform="translate(-360,956.3622)"/></g><rect style="opacity:.5;color:#000;fill:none;stroke:none;stroke-width:2;marker:none;visibility:visible;display:inline;overflow:visible;enable-background:accumulate" id="rect22294-1" width="24" height="24" x="474" y="1098.362"/></g></g></svg>