<svg xmlns="http://www.w3.org/2000/svg" xmlns:svg="http://www.w3.org/2000/svg" id="svg4460" width="24" height="24" x="0" y="0" enable-background="new -402.5 403.5 24 24" version="1.1" viewBox="-402.5 403.5 24 24" xml:space="preserve"><metadata id="metadata3052"/><g id="photo" transform="translate(0,-2)"><path id="path3042" stroke-miterlimit="10" d="m -381.5,411.5 h -4 v -1 c 0,-0.553 -0.448,-1 -1,-1 h -4 c -0.552,0 -1,0.447 -1,1 v 1 h -3 c 0,-0.553 -0.448,-1 -1,-1 h -1 c -0.552,0 -1,0.447 -1,1 h -1 c -0.552,0 -1,0.447 -1,1 v 10 c 0,0.553 0.448,1 1,1 h 17 c 0.552,0 1,-0.447 1,-1 v -10 c 0,-0.553 -0.448,-1 -1,-1 z" style="opacity:.3;fill:#fff;stroke:#fff;stroke-width:2;stroke-miterlimit:10"/><g id="g3044"><path id="path3046" d="m -381.5,411.5 h -4 v -1 c 0,-0.553 -0.448,-1 -1,-1 h -4 c -0.552,0 -1,0.447 -1,1 v 1 h -3 c 0,-0.553 -0.448,-1 -1,-1 h -1 c -0.552,0 -1,0.447 -1,1 h -1 c -0.552,0 -1,0.447 -1,1 v 10 c 0,0.553 0.448,1 1,1 h 17 c 0.552,0 1,-0.447 1,-1 v -10 c 0,-0.553 -0.448,-1 -1,-1 z m -7,10 c -2.209,0 -4,-1.791 -4,-4 0,-2.209 1.791,-4 4,-4 2.209,0 4,1.791 4,4 0,2.209 -1.791,4 -4,4 z" style="fill:#454545"/><circle id="circle3048" cx="-388.5" cy="417.5" r="2" d="m -386.5,417.5 c 0,1.10457 -0.89543,2 -2,2 -1.10457,0 -2,-0.89543 -2,-2 0,-1.10457 0.89543,-2 2,-2 1.10457,0 2,0.89543 2,2 z" style="fill:#454545"/></g></g></svg>