<svg xmlns="http://www.w3.org/2000/svg" xmlns:svg="http://www.w3.org/2000/svg" id="svg4460" width="24" height="24" version="1.1"><metadata id="metadata4465"/><g id="layer1" transform="translate(0,-1028.3622)"><g style="display:inline" id="circle-24" transform="translate(72,-46)"><g id="g11227" transform="matrix(-1,0,0,1,-108,70.000002)"><path id="path8568" d="m 20.5,12.25 c 0,4.556349 -3.693651,8.25 -8.25,8.25 C 7.6936508,20.5 4,16.806349 4,12.25 4,7.6936508 7.6936508,4 12.25,4 c 4.556349,0 8.25,3.6936508 8.25,8.25 z" transform="matrix(1.0303081,0,0,1.0303081,-61.121232,1003.2409)" style="opacity:.3;color:#000;fill:#fff;fill-opacity:1;fill-rule:nonzero;stroke:#fff;stroke-width:1.94116688;stroke-miterlimit:4;stroke-dasharray:none;marker:none;visibility:visible;display:inline;overflow:visible;enable-background:accumulate"/><path style="color:#000;fill:#444;fill-opacity:1;fill-rule:nonzero;stroke:none;stroke-width:2;marker:none;visibility:visible;display:inline;overflow:visible;enable-background:accumulate" id="path8564" d="m 20.5,12.25 c 0,4.556349 -3.693651,8.25 -8.25,8.25 C 7.6936508,20.5 4,16.806349 4,12.25 4,7.6936508 7.6936508,4 12.25,4 c 4.556349,0 8.25,3.6936508 8.25,8.25 z" transform="matrix(1.0303132,0,0,1.0303132,-61.121337,1003.2409)"/></g><rect style="opacity:.5;color:#000;fill:none;stroke:none;stroke-width:2;marker:none;visibility:visible;display:inline;overflow:visible;enable-background:accumulate" id="rect21973" width="24" height="24" x="-72" y="1074.362"/></g></g></svg>