<svg xmlns="http://www.w3.org/2000/svg" xmlns:svg="http://www.w3.org/2000/svg" id="svg4764" width="12" height="12" version="1.1"><metadata id="metadata4769"/><g id="layer1" transform="translate(0,-1040.3622)"><g style="display:inline" id="circle-12" transform="translate(30,-34)"><g id="g21889" transform="translate(1,0)"><path style="opacity:.3;color:#000;fill:#fff;fill-opacity:1;fill-rule:nonzero;stroke:#fff;stroke-width:3.66666675;stroke-linecap:butt;stroke-linejoin:miter;stroke-miterlimit:4;stroke-opacity:1;stroke-dasharray:none;stroke-dashoffset:0;marker:none;visibility:visible;display:inline;overflow:visible;enable-background:accumulate" id="path17452" d="m 20.5,12.25 c 0,4.556349 -3.693651,8.25 -8.25,8.25 C 7.6936508,20.5 4,16.806349 4,12.25 4,7.6936508 7.6936508,4 12.25,4 c 4.556349,0 8.25,3.6936508 8.25,8.25 z" transform="matrix(-0.54545455,0,0,0.54545455,-17.818182,1073.1804)"/><path id="path8564-0" d="m 20.5,12.25 c 0,4.556349 -3.693651,8.25 -8.25,8.25 C 7.6936508,20.5 4,16.806349 4,12.25 4,7.6936508 7.6936508,4 12.25,4 c 4.556349,0 8.25,3.6936508 8.25,8.25 z" transform="matrix(-0.54545455,0,0,0.54545455,-17.818182,1073.1804)" style="color:#000;fill:#444;fill-opacity:1;fill-rule:nonzero;stroke:none;stroke-width:2;marker:none;visibility:visible;display:inline;overflow:visible;enable-background:accumulate"/></g><rect style="opacity:.5;color:#000;fill:none;stroke:none;stroke-width:2;marker:none;visibility:visible;display:inline;overflow:visible;enable-background:accumulate" id="rect21977" width="12" height="12" x="-30" y="1074.362"/></g></g></svg>