<svg xmlns="http://www.w3.org/2000/svg" xmlns:svg="http://www.w3.org/2000/svg" id="svg4764" width="12" height="12" version="1.1"><metadata id="metadata4769"/><g id="layer1" transform="translate(0,-1040.3622)" style="display:inline"><path id="path3779" d="m 4,1041.3622 -1,1 -1,2 0,1 2,0 0,5 5,0 0,-5 2,0 0,-1 -1,-2 -1,-1 -1,0 0,1.5 -1,0 0,0.5 -1,0 0,-0.5 -1,0 0,-1.5 -1,0 z" style="fill:#444;fill-opacity:1;stroke:#fff;stroke-opacity:1;stroke-width:2;stroke-miterlimit:4;stroke-dasharray:none;stroke-linejoin:round;stroke-linecap:round;opacity:.3"/><path style="fill:#444;fill-opacity:1;stroke:none" id="rect3131" d="m 4,1041.3622 -1,1 -1,2 0,1 2,0 0,5 5,0 0,-5 2,0 0,-1 -1,-2 -1,-1 -1,0 0,1.5 -1,0 0,0.5 -1,0 0,-0.5 -1,0 0,-1.5 -1,0 z"/><path style="opacity:1;fill:none;fill-opacity:1;stroke:none" id="rect3098" d="M 0,0 12,0 12,12 0,12 z" transform="translate(0,1040.3622)"/></g></svg>