<svg xmlns="http://www.w3.org/2000/svg" xmlns:svg="http://www.w3.org/2000/svg" id="svg4619" width="18" height="18" version="1.1"><metadata id="metadata4624"/><g id="layer1" transform="translate(0,-1034.3622)"><g style="display:inline" id="dam-18" transform="translate(-499.99999,-280.00001)"><g id="g7281" transform="translate(2,0)"><path id="path7170" d="m 501,1316.3622 0,12 5,0 -3,-12 z m 6.5,6.5 -1.21875,0.625 0.34375,1.3125 0.875,-0.4375 2,1 2.5,-0.8437 2,0.8437 0,-1.5 -2,-1 -2.5,1 z m 0,3 -0.5625,0.2813 0.34375,1.3437 0.21875,-0.125 2,1 2.5,-0.8437 2,0.8437 0,-1.5 -2,-1 -2.5,1 z" style="opacity:.3;color:#000;fill:#fff;fill-opacity:1;fill-rule:nonzero;stroke:#fff;stroke-width:2;stroke-linecap:round;stroke-linejoin:round;stroke-miterlimit:4;stroke-opacity:1;stroke-dasharray:none;stroke-dashoffset:0;marker:none;visibility:visible;display:inline;overflow:visible;enable-background:accumulate"/><path style="color:#000;fill:#444;fill-opacity:1;fill-rule:nonzero;stroke:none;stroke-width:2;marker:none;visibility:visible;display:inline;overflow:visible;enable-background:accumulate" id="path30964-3" d="m 501,1316.3622 0,12 5,0 -3,-12 z m 6.5,6.5 -1.21875,0.625 0.34375,1.3125 0.875,-0.4375 2,1 2.5,-0.8437 2,0.8437 0,-1.5 -2,-1 -2.5,1 z m 0,3 -0.5625,0.2813 0.34375,1.3437 0.21875,-0.125 2,1 2.5,-0.8437 2,0.8437 0,-1.5 -2,-1 -2.5,1 z"/></g><rect id="rect7327" width="18" height="18" x="500" y="1314.362" style="opacity:.5;color:#000;fill:none;stroke:none;stroke-width:2;marker:none;visibility:visible;display:inline;overflow:visible;enable-background:accumulate"/></g></g></svg>