<svg xmlns="http://www.w3.org/2000/svg" xmlns:svg="http://www.w3.org/2000/svg" id="svg4619" width="18" height="18" version="1.1"><metadata id="metadata4624"/><g id="layer1" transform="translate(0,-1034.3622)"><g id="g3007"><path id="path3003" d="m 13.90625,2.5 a 0.50005,0.50005 0 0 0 -0.1875,0.09375 l -1.5,1 a 0.50005,0.50005 0 0 0 -0.15625,0.1875 l -1,2 A 0.50005,0.50005 0 0 0 11,6 0.50005,0.50005 0 0 0 10.78125,6.0625 L 9.90625,6.5 6.125,6.5 5.21875,5.875 6.40625,4.3125 A 0.50005,0.50005 0 0 0 6,3.5 l -1,0 A 0.50005,0.50005 0 0 0 4.59375,3.6875 l -1.5,2 A 0.50005,0.50005 0 0 0 3.0625,6.21875 l 1,1.90625 -0.375,1 A 0.50005,0.50005 0 0 0 3.65625,9.375 L 3.71875,9.90625 1.5625,13.75 A 0.50005,0.50005 0 0 0 2,14.5 l 1,0 A 0.50005,0.50005 0 0 0 3.375,14.3125 L 4.6875,12.71875 4.5,13.90625 A 0.50005,0.50005 0 0 0 5,14.5 l 1,0 a 0.50005,0.50005 0 0 0 0.5,-0.375 l 0.875,-3.5 2.5,0.6875 -0.84375,2.53125 A 0.50005,0.50005 0 0 0 9.5,14.5 l 1.5,0 a 0.50005,0.50005 0 0 0 0.46875,-0.34375 L 11.84375,13.0625 12,14.09375 A 0.50005,0.50005 0 0 0 12.5,14.5 l 1.5,0 a 0.50005,0.50005 0 0 0 0.46875,-0.65625 L 13.5,11 13.5,10.9375 13.5,8.5 A 0.50005,0.50005 0 0 0 13.9375,8.21875 L 14.3125,7.5 16.5,7.5 a 0.50005,0.50005 0 0 0 0.4375,-0.28125 l 0.5,-1 A 0.50005,0.50005 0 0 0 17.21875,5.5625 l -2.5,-1.25 0.6875,-1.03125 A 0.50005,0.50005 0 0 0 15,2.5 l -1,0 a 0.50005,0.50005 0 0 0 -0.09375,0 z" transform="translate(0,1034.3622)" style="fill:#fff;fill-opacity:1;stroke:none;opacity:.3"/><path style="fill:#444;fill-opacity:1;stroke:none" id="path3052" d="m 12.5,1038.3622 1.5,-1 1,0 -1,1.5 3,1.5 -0.5,1 -2.5,0 -0.5,1 -2,-2 z"/><path style="fill:#444;fill-opacity:1;stroke:none" id="path3054" d="m 13,1042.8622 -2,-2 -1,0.5 -4,0 -1.5,-1 1.5,-2 -1,0 -1.5,2 1.125,2.125 -0.475,1.2 0.1,0.675 -2.25,4 1,0 2.5,-3 -0.5,3 1,0 1,-4 3.5,1 -1,3 1.5,0 1,-3 0.5,3 1.5,0 -1,-3 z"/></g></g></svg>