<svg xmlns="http://www.w3.org/2000/svg" xmlns:svg="http://www.w3.org/2000/svg" id="svg4460" width="24" height="24" version="1.1"><metadata id="metadata4465"/><g id="layer1" transform="translate(0,-1028.3622)"><g id="g3047"><path id="path3043" d="m 6,3.96875 a 1.0165677,1.0165677 0 0 0 -0.90625,0.5625 l -1,2 A 1.0165677,1.0165677 0 0 0 4.03125,7.3125 l 0.875,2.625 C 4.2267643,10.949329 4.0072464,11.996205 4,12.8125 L 2.0625,17.625 A 1.0165677,1.0165677 0 0 0 3,19.03125 l 2,0 a 1.0165677,1.0165677 0 0 0 0.5,-0.15625 1.0165677,1.0165677 0 0 0 0.03125,0 A 1.0165677,1.0165677 0 0 0 6,19.03125 l 2,0 a 1.0165677,1.0165677 0 0 0 0.84375,-1.5625 c -0.2941851,-0.464839 -0.2534419,-0.90685 0,-1.625 0.1612057,-0.45679 0.4312536,-1.046941 0.6875,-1.59375 0.1546896,0.06763 0.1921313,0.05067 0.5,0.1875 0.370009,0.164449 1.11595,0.228914 1.71875,0.34375 L 11,17.75 a 1.0165677,1.0165677 0 0 0 1,1.28125 l 2,0 A 1.0165677,1.0165677 0 0 0 14.96875,18.25 l 0.125,0.21875 A 1.0165677,1.0165677 0 0 0 16,19.03125 l 2,0 A 1.0165677,1.0165677 0 0 0 18.5,17.125 c -0.590945,-0.340615 -0.773122,-0.658377 -0.96875,-1.1875 -0.178512,-0.482828 -0.280371,-1.203866 -0.46875,-2 l 0.40625,-2.03125 a 1.0165677,1.0165677 0 0 0 0.4375,-0.4375 c 0.06817,-0.136338 0.144524,-0.242837 0.75,-0.34375 C 19.261726,11.024087 20.25,11.03125 21.5,11.03125 a 1.0165677,1.0165677 0 0 0 0.96875,-0.71875 l 0.5,-1.5 a 1.0165677,1.0165677 0 0 0 -0.5,-1.21875 L 19.375,6.0625 19.71875,5.71875 A 1.0165677,1.0165677 0 0 0 19,3.96875 l -1,0 a 1.0165677,1.0165677 0 0 0 -0.46875,0.125 l -2,1 a 1.0165677,1.0165677 0 0 0 -0.4375,0.4375 l -1,2 a 1.0165677,1.0165677 0 0 0 0,0.03125 L 12.875,7.96875 8,7.96875 7.1875,6.875 7.90625,5.46875 A 1.0165677,1.0165677 0 0 0 7,3.96875 l -1,0 z" transform="translate(0,1028.3622)" style="fill:#fff;fill-opacity:1;stroke:none;opacity:.3"/><path style="fill:#444;fill-opacity:1;stroke:none" id="path3066" d="m 16,1034.3622 2,-1 1,0 -1,1 0,0.5 4,2 -0.5,1.5 c -2.5,0 -4,0 -4.5,1 l -2,-3 z"/><path id="path3078" d="m 16.5,1039.8622 -2,-3 -1.5,0.5 -5.5,0 -1.5,-2 1,-2 -1,0 -1,2 1,3 c -1,1 -1,2 -1,3 l -2,5 2,0 c -0.4820717,-1.3895 0.7533498,-2.3844 1.5,-3.5 l -0.5,3.5 2,0 c -1.0043724,-1.587 0.3998945,-3.3997 1,-5 1,0 1.5,1 4,1 l -1,4 2,0 c -0.876022,-1.1183 -0.0756,-1.8488 0.5,-3 l 1.5,3 2,0 c -1.578269,-0.9097 -1.583004,-2.332 -2,-4 z" style="fill:#444;fill-opacity:1;stroke:none"/></g></g></svg>