<svg xmlns="http://www.w3.org/2000/svg" xmlns:svg="http://www.w3.org/2000/svg" id="svg4764" width="12" height="12" version="1.1"><metadata id="metadata4769"/><g id="layer1" transform="translate(0,-1040.3622)"><g style="display:inline" id="emergency-telephone-12" transform="translate(-360,-298.00005)"><path id="path6414" d="m 484,289.5 -2.5,2.5 2.5,0 0,-2.5 z m 3.5,0.5 -5.5,5.5 0,2 1,1 1,0 1,-1 0,-1 -1,-1 3.5,-3.5 1,1 1,0 1,-1 0,-1 -1,-1 -2,0 z" transform="translate(-120,1050.3622)" style="opacity:.3;color:#000;fill:none;stroke:#fff;stroke-width:2;stroke-linecap:round;stroke-linejoin:round;stroke-miterlimit:4;stroke-opacity:1;stroke-dasharray:none;stroke-dashoffset:0;marker:none;visibility:visible;display:inline;overflow:visible;enable-background:accumulate"/><g id="g6256" transform="translate(0,23)"><g id="g6260" transform="matrix(0.50000083,0,0,0.50000083,199.99973,658.18001)" style="display:inline"><rect id="rect6262" width="24" height="24" x="320" y="1314.362" style="color:#000;fill:none;stroke:none;stroke-width:2;marker:none;visibility:visible;display:inline;overflow:visible;enable-background:accumulate"/></g><path id="path6264" d="m 484,289.5 -2.5,2.5 2.5,0 0,-2.5 z m 3.5,0.5 -5.5,5.5 0,2 1,1 1,0 1,-1 0,-1 -1,-1 3.5,-3.5 1,1 1,0 1,-1 0,-1 -1,-1 -2,0 z" transform="translate(-120,1027.3622)" style="color:#000;fill:#444;fill-opacity:1;stroke:none;stroke-width:1;marker:none;visibility:visible;display:inline;overflow:visible;enable-background:accumulate"/></g></g></g></svg>