<svg xmlns="http://www.w3.org/2000/svg" xmlns:svg="http://www.w3.org/2000/svg" id="svg4460" width="24" height="24" version="1.1"><metadata id="metadata4465"/><g id="layer1" transform="translate(0,-1028.3622)"><path style="font-size:medium;font-style:normal;font-variant:normal;font-weight:400;font-stretch:normal;text-indent:0;text-align:start;text-decoration:none;line-height:normal;letter-spacing:normal;word-spacing:normal;text-transform:none;direction:ltr;block-progression:tb;writing-mode:lr-tb;text-anchor:start;baseline-shift:baseline;color:#000;fill:#fff;fill-opacity:1;stroke:none;stroke-width:2;marker:none;visibility:visible;display:inline;overflow:visible;enable-background:accumulate;font-family:Sans;-inkscape-font-specification:Sans;opacity:.3" id="path3793" d="M 7,2 C 6.3946667,2 5.9322146,2.2811 5.59375,2.625 5.2552854,2.9689 4.9893687,3.397 5,4 l 0,4 c 5.24e-5,0.5236 0.4764155,0.9999 1,1 L 3.5,9 C 2.1272827,9 1,10.1314 1,11.5 1,12.8686 2.133269,14.0003 3.5,14 L 6,14 c -0.5235845,10e-5 -0.9999476,0.4764 -1,1 l 0,4 c 1.132e-4,1.1301 0.8704528,1.9998 2,2 l 11,0 c 1.129547,-2e-4 1.999888,-0.8699 2,-2 L 20,4 C 19.999888,2.8699 19.129547,2.0002 18,2 z m 9,4 0,3.96875 C 14.458929,8.7444991 12.900706,7.5121513 11.375,6.28125 10.921337,5.96885 10.5,6 10.53125,5.984375 12.5,6 11.444789,6 16,6 z M 16,13.03125 16,17 10.53125,17 c -2.8109185,-1.516563 -1.7955052,-0.523689 0,0 0.272865,0.0084 0.546628,-0.0694 0.8125,-0.25 0.02173,-0.02 0.04259,-0.0405 0.0625,-0.0625 z" transform="translate(0,1028.3622)"/><path style="fill:#444;fill-opacity:1;stroke:none" id="path3826" d="m 10,1035.8622 0,2.5 -6.5,0 c -0.8283264,0 -1.5,0.6764 -1.5,1.5039 0,0.8275 0.6716736,1.4963 1.5,1.4961 l 6.4990267,0 9.733e-4,2.5 c 0.0052,0.3582 0.483722,0.6359 0.780182,0.4344 l 5.011109,-4.019 c 0.263953,-0.1741 0.281053,-0.6181 0.03125,-0.8117 l -5.011109,-3.9725 C 10.357902,1035.181 10,1035.4872 10,1035.8622 z"/><path style="font-size:medium;font-style:normal;font-variant:normal;font-weight:400;font-stretch:normal;text-indent:0;text-align:start;text-decoration:none;line-height:normal;letter-spacing:normal;word-spacing:normal;text-transform:none;direction:ltr;block-progression:tb;writing-mode:lr-tb;text-anchor:start;baseline-shift:baseline;color:#000;fill:#444;fill-opacity:1;stroke:none;stroke-width:2;marker:none;visibility:visible;display:inline;overflow:visible;enable-background:accumulate;font-family:Sans;-inkscape-font-specification:Sans" id="rect3795" d="m 7,1031.3622 c -0.5,0 -1.0082234,0.533 -1,0.9994 l 0,4.0006 2,0 0,-3 9,0 0,13 -9,0 0,-3 -2,0 0,4.0006 c 5.24e-5,0.5233 0.4764155,0.9993 1,0.9994 l 11,0 c 0.523584,-10e-5 0.999948,-0.4761 1,-0.9994 l 0,-15.0012 c -5.2e-5,-0.5233 -0.476416,-0.9993 -1,-0.9994 -3.721257,0 -7.29509,0 -11,0 z"/></g></svg>