<svg xmlns="http://www.w3.org/2000/svg" xmlns:svg="http://www.w3.org/2000/svg" id="svg4764" width="12" height="12" version="1.1"><metadata id="metadata4769"/><g id="layer1" transform="translate(0,-1040.3622)"><path style="font-size:medium;font-style:normal;font-variant:normal;font-weight:400;font-stretch:normal;text-indent:0;text-align:start;text-decoration:none;line-height:normal;letter-spacing:normal;word-spacing:normal;text-transform:none;direction:ltr;block-progression:tb;writing-mode:lr-tb;text-anchor:start;baseline-shift:baseline;opacity:.3;color:#000;fill:#fff;fill-opacity:1;stroke:none;stroke-width:2;marker:none;visibility:visible;display:inline;overflow:visible;enable-background:accumulate;font-family:Sans;-inkscape-font-specification:Sans" id="path3025" d="m 2.8125,1051.3622 c -0.4584025,-0.088 -0.8207234,-0.5334 -0.8125,-1 l 0,-3 -1,0 c -0.5235845,-10e-5 -0.9999476,-0.4764 -1,-1 l 0,-1 c 5.24e-5,-0.5236 0.4764155,-0.9999 1,-1 l 1,0 0,-3 c 5.24e-5,-0.5236 0.4764155,-0.9999 1,-1 l 7,0 c 0.523584,10e-5 0.999948,0.4764 1,1 l 0,9 c -5.2e-5,0.5236 -0.476416,0.9999 -1,1 -2.3886165,0 -4.811906,0 -7.1875,0 z"/><path style="fill:#444;stroke:none" id="rect3955" d="m 3,1041.3622 0,3 1,0 0,-2 5,0 0,7 -5,0 0,-2 -1,0 0,3 7,0 0,-9 -7,0 z"/><path style="font-size:medium;font-style:normal;font-variant:normal;font-weight:400;font-stretch:normal;text-indent:0;text-align:start;text-decoration:none;line-height:normal;letter-spacing:normal;word-spacing:normal;text-transform:none;direction:ltr;block-progression:tb;writing-mode:lr-tb;text-anchor:start;baseline-shift:baseline;color:#000;fill:#444;fill-opacity:1;fill-rule:nonzero;stroke:none;stroke-width:2.74518514;marker:none;visibility:visible;display:inline;overflow:visible;enable-background:accumulate;font-family:Sans;-inkscape-font-specification:Sans" id="path3961" d="m 5,1043.3622 0,2 -4,0 0,1 4,0 0,2 1,0 0,-1 1,0 0,-1 1,0 0,-1 -1,0 0,-1 -1,0 0,-1 -1,0 z"/></g></svg>