<svg xmlns="http://www.w3.org/2000/svg" xmlns:svg="http://www.w3.org/2000/svg" id="svg4619" width="18" height="18" version="1.1"><metadata id="metadata4624"/><g id="layer1" transform="translate(0,-1034.3622)"><g style="display:inline" id="fire-station-18" transform="translate(-420,-40)"><g id="g21510"><path id="path14455" d="m 429.5,1076.3622 -2.5,4 -1.5,-2 c -0.53852,0.9467 -2.5,3.0625 -2.5,5.5 0,3.5899 2.91015,6.5 6.5,6.5 3.58985,0 6.5,-2.9101 6.5,-6.5 0,-2.4375 -1.96148,-4.5533 -2.5,-5.5 l -1.5,2 z" style="opacity:.3;color:#000;fill:#fff;stroke:#fff;stroke-width:2;stroke-linecap:round;stroke-linejoin:round;stroke-miterlimit:4;stroke-opacity:1;stroke-dasharray:none;stroke-dashoffset:0;marker:none;visibility:visible;display:inline;overflow:visible;enable-background:accumulate"/><path style="color:#000;fill:#444;fill-opacity:1;fill-rule:nonzero;stroke:none;stroke-width:2;marker:none;visibility:visible;display:inline;overflow:visible;enable-background:accumulate" id="path10041-3-3" d="m 429.5,1076.3622 -2.5,4 -1.5,-2 c -0.53852,0.9467 -2.5,3.0625 -2.5,5.5 0,3.5899 2.91015,6.5 6.5,6.5 3.58985,0 6.5,-2.9101 6.5,-6.5 0,-2.4375 -1.96148,-4.5533 -2.5,-5.5 l -1.5,2 z m 0,6.5 c 0,0 2.5,2.3687 2.5,4.25 0,0.8125 -0.875,1.75 -2.5,1.75 -1.625,0 -2.5,-0.9375 -2.5,-1.75 0,-1.8168 2.5,-4.25 2.5,-4.25 z"/></g><rect id="rect22290-37" width="18" height="18" x="420" y="1074.362" style="opacity:.5;color:#000;fill:none;stroke:none;stroke-width:2;marker:none;visibility:visible;display:inline;overflow:visible;enable-background:accumulate"/></g></g></svg>