<svg xmlns="http://www.w3.org/2000/svg" xmlns:svg="http://www.w3.org/2000/svg" id="svg4460" width="24" height="24" version="1.1"><metadata id="metadata4465"/><g id="layer1" transform="translate(0,-1028.3622)"><g style="display:inline" id="fuel-24" transform="translate(-84,-142)"><g id="g15942" transform="translate(0,4)"><g style="display:inline" id="g7283-3-3-2" transform="translate(83,162)"><path style="opacity:.3;color:#000;fill:#fff;fill-opacity:1;fill-rule:nonzero;stroke:#fff;stroke-width:2;stroke-linecap:round;stroke-linejoin:round;marker:none;visibility:visible;display:inline;overflow:visible;enable-background:accumulate" id="path21806" d="m 9,1007.3622 c -0.5540096,0 -1,0.446 -1,1 l 0,16 c 0,0.5 0.5,1 1,1 l 9,0 c 0.5,0 1,-0.5 1,-1 l 0,-5 0.5,0 c 0.5,0 0.5,0.5 0.5,0.5 l 0,2 c 0,1 0.5,1.5 1.5,1.5 1,0 1.5,-0.5 1.5,-1.5 0,-1.1667 0,-4.5 0,-5.5 0,-1 -2,-2 -2,-3 l 0,-3 -1,0 -1,-1 0,-1 c 0,-0.554 -0.44599,-1 -1,-1 z m 1,2 7,0 0,4 -7,0 z m 9,3 1,0 c 0,0 0,0.8333 0,1.5 0,1 2,2 2,3 l 0,5 c 0,0.5 -0.5,0.5 -0.5,0.5 0,0 -0.5,0 -0.5,-0.5 0,0 0,-2 0,-2.5 0,-0.5 -0.5,-1 -1,-1 -0.333333,0 -1,0 -1,0 z"/><path id="rect7223-2-4-9" d="m 9,1007.3622 c -0.5540096,0 -1,0.446 -1,1 l 0,16 c 0,0.5 0.5,1 1,1 l 9,0 c 0.5,0 1,-0.5 1,-1 l 0,-5 0.5,0 c 0.5,0 0.5,0.5 0.5,0.5 l 0,2 c 0,1 0.5,1.5 1.5,1.5 1,0 1.5,-0.5 1.5,-1.5 0,-1.1667 0,-4.5 0,-5.5 0,-1 -2,-2 -2,-3 l 0,-3 -1,0 -1,-1 0,-1 c 0,-0.554 -0.44599,-1 -1,-1 z m 1,2 7,0 0,4 -7,0 z m 9,3 1,0 c 0,0 0,0.8333 0,1.5 0,1 2,2 2,3 l 0,5 c 0,0.5 -0.5,0.5 -0.5,0.5 0,0 -0.5,0 -0.5,-0.5 0,0 0,-2 0,-2.5 0,-0.5 -0.5,-1 -1,-1 -0.333333,0 -1,0 -1,0 z" style="color:#000;fill:#444;fill-opacity:1;fill-rule:nonzero;stroke:none;stroke-width:2;marker:none;visibility:visible;display:inline;overflow:visible;enable-background:accumulate"/></g></g><rect style="opacity:.5;color:#000;fill:none;stroke:none;stroke-width:2;marker:none;visibility:visible;display:inline;overflow:visible;enable-background:accumulate" id="rect22176" width="24" height="24" x="84" y="1170.362"/></g></g></svg>