<svg xmlns="http://www.w3.org/2000/svg" xmlns:svg="http://www.w3.org/2000/svg" id="svg4619" width="18" height="18" version="1.1"><metadata id="metadata4624"/><g id="layer1" transform="translate(0,-1034.3622)"><g style="display:inline" id="garden-18" transform="translate(-186,-160)"><path style="opacity:.3;color:#000;fill:#444;fill-opacity:1;fill-rule:nonzero;stroke:#fff;stroke-width:2;stroke-linecap:round;stroke-linejoin:round;stroke-miterlimit:4;stroke-opacity:1;stroke-dasharray:none;stroke-dashoffset:0;marker:none;visibility:visible;display:inline;overflow:visible;enable-background:accumulate" id="path12769" d="m 192,1196.3622 0,2.5 c 0,1.6504 1.375,2.5508 3,2.5 l 0,6.5 c -0.8125,-1.625 -2.5,-3.5 -5,-2.5 0,0 1.5,4 5.5,4 4,0 5.5,-4 5.5,-4 -2.5,-1 -4.1875,0.875 -5,2.5 l 0,-6.5 c 1.625,0.051 3,-0.8496 3,-2.5 l 0,-2.5 -2,2 -1.5,-2 -1.5,2 z"/><g id="g3625-0-4" transform="translate(-123.49314,910.9719)"><path style="color:#000;fill:#444;fill-opacity:1;fill-rule:nonzero;stroke:none;stroke-width:2;marker:none;visibility:visible;display:inline;overflow:visible;enable-background:accumulate" id="path6080-4-1" d="m 315.49314,285.3903 0,2.5 c 0,1.65038 1.375,2.55078 3,2.5 l 0,6.5 c -0.8125,-1.625 -2.5,-3.5 -5,-2.5 0,0 1.5,4 5.5,4 4,0 5.5,-4 5.5,-4 -2.5,-1 -4.1875,0.875 -5,2.5 l 0,-6.5 c 1.625,0.0508 3,-0.84962 3,-2.5 l 0,-2.49999 -2,1.99999 -1.5,-2 -1.5,2 z"/></g><rect id="rect22284" width="18" height="18" x="186" y="1194.362" style="opacity:.5;color:#000;fill:none;stroke:none;stroke-width:2;marker:none;visibility:visible;display:inline;overflow:visible;enable-background:accumulate"/></g></g></svg>