<svg xmlns="http://www.w3.org/2000/svg" xmlns:svg="http://www.w3.org/2000/svg" id="svg4619" width="18" height="18" version="1.1"><metadata id="metadata4624"/><g id="layer1" transform="translate(0,-1034.3622)"><g style="display:inline" id="harbor-18" transform="translate(-108,-328)"><path style="opacity:.3;color:#000;fill:#fff;fill-opacity:1;fill-rule:nonzero;stroke:#fff;stroke-width:2;stroke-linecap:butt;stroke-linejoin:round;stroke-miterlimit:4;stroke-opacity:1;stroke-dasharray:none;stroke-dashoffset:0;marker:none;visibility:visible;display:inline;overflow:visible;enable-background:accumulate" id="path7743" d="m 121,1364.3622 -1,0.5 -0.5,0.5 -0.5,1 0,1 0.0937,0.4063 -6.3437,6.3437 c -0.75,-0.75 -0.75,-2.75 0.25,-3.75 l 1,1 0,-4 -1.5,1.5 c -1,1 -1.5,1.5 -1.5,3 l 0,1.5 0,4 4,0 1.5,0 c 1,0 2,-0.5 3,-1.5 l 0.5,-0.5 1,-1 -1,0 -3,0 1,1 c -1,1 -3,1 -3.75,0.25 l 6.34375,-6.3437 0.40625,0.094 1,0 1,-0.5 0.5,-0.5 0.5,-1 0,-1 -0.5,-1 -0.5,-0.5 -1,-0.5 -1,0 z m 0,1.5 0.5,0 0.5,0 0.5,0.5 0,0.5 0,0.5 -0.5,0.5 -0.5,0 -0.5,0 -0.5,-0.5 0,-0.5 0,-0.5 0.5,-0.5 z"/><path id="path7366" d="m 121,1364.3622 -1,0.5 -0.5,0.5 -0.5,1 0,1 0.0937,0.4063 -6.3437,6.3437 c -0.75,-0.75 -0.75,-2.75 0.25,-3.75 l 1,1 0,-4 -1.5,1.5 c -1,1 -1.5,1.5 -1.5,3 l 0,1.5 0,4 4,0 1.5,0 c 1,0 2,-0.5 3,-1.5 l 0.5,-0.5 1,-1 -1,0 -3,0 1,1 c -1,1 -3,1 -3.75,0.25 l 6.34375,-6.3437 0.40625,0.094 1,0 1,-0.5 0.5,-0.5 0.5,-1 0,-1 -0.5,-1 -0.5,-0.5 -1,-0.5 -1,0 z m 0,1.5 0.5,0 0.5,0 0.5,0.5 0,0.5 0,0.5 -0.5,0.5 -0.5,0 -0.5,0 -0.5,-0.5 0,-0.5 0,-0.5 0.5,-0.5 z" style="color:#000;fill:#444;fill-opacity:1;fill-rule:nonzero;stroke:none;stroke-width:2;marker:none;visibility:visible;display:inline;overflow:visible;enable-background:accumulate"/><rect id="rect15834" width="18" height="18" x="108" y="1362.362" rx="0" ry="0" style="opacity:.3;color:#000;fill:none;stroke:none;stroke-width:2;marker:none;visibility:visible;display:inline;overflow:visible;enable-background:accumulate"/></g></g></svg>