<svg xmlns="http://www.w3.org/2000/svg" xmlns:svg="http://www.w3.org/2000/svg" id="svg4619" width="18" height="18" version="1.1"><metadata id="metadata4624"/><g id="layer1" transform="translate(0,-1034.3622)"><g style="display:inline" id="hospital-18" transform="translate(-263.99999,-87.999983)"><g id="g8231-5-8" transform="translate(261,115)" style="display:inline"><path style="opacity:.3;color:#000;fill:none;stroke:#fff;stroke-width:2;stroke-linecap:butt;stroke-linejoin:miter;stroke-miterlimit:4;stroke-opacity:1;stroke-dasharray:none;stroke-dashoffset:0;marker:none;visibility:visible;display:inline;overflow:visible;enable-background:accumulate" id="path14521" d="m 11,1009.3622 c -0.554,0 -1,0.446 -1,1 l 0,3 -3,0 c -0.554,0 -1,0.446 -1,1 l 0,3 c 0,0.554 0.474429,1.1752 1,1 l 3,0 0,3 c 0,0.554 0.446,1 1,1 l 3,0 c 0.554,0 1,-0.446 1,-1 l 0,-3 3,0 c 0.554,0 1,-0.446 1,-1 l 0,-3 c 0,-0.554 -0.446,-1 -1,-1 l -3,0 0,-3 c 0,-0.554 -0.446,-1 -1,-1 z"/><path id="rect8206-4-3" d="m 11,1009.3622 c -0.554,0 -1,0.446 -1,1 l 0,3 -3,0 c -0.554,0 -1,0.446 -1,1 l 0,3 c 0,0.554 0.474429,1.1752 1,1 l 3,0 0,3 c 0,0.554 0.446,1 1,1 l 3,0 c 0.554,0 1,-0.446 1,-1 l 0,-3 3,0 c 0.554,0 1,-0.446 1,-1 l 0,-3 c 0,-0.554 -0.446,-1 -1,-1 l -3,0 0,-3 c 0,-0.554 -0.446,-1 -1,-1 z" style="color:#000;fill:#444;fill-opacity:1;stroke:none;stroke-width:2;marker:none;visibility:visible;display:inline;overflow:visible;enable-background:accumulate"/></g><rect style="opacity:.5;color:#000;fill:none;stroke:none;stroke-width:2;marker:none;visibility:visible;display:inline;overflow:visible;enable-background:accumulate" id="rect22302" width="18" height="18" x="264" y="1122.362"/></g></g></svg>