<svg xmlns="http://www.w3.org/2000/svg" xmlns:svg="http://www.w3.org/2000/svg" id="svg4764" width="12" height="12" version="1.1"><metadata id="metadata4769"/><g id="layer1" transform="translate(0,-1040.3622)"><g style="display:inline" id="land-use-12" transform="translate(-672,-201.99998)"><g id="g5945" transform="matrix(0.58823529,0,0,0.58823529,302.23531,510.20797)"><path style="opacity:.3;color:#000;fill:#fff;fill-opacity:1;fill-rule:nonzero;stroke:#fff;stroke-width:3.4000001;stroke-linecap:round;stroke-linejoin:round;stroke-miterlimit:4;stroke-opacity:1;stroke-dasharray:none;stroke-dashoffset:0;marker:none;visibility:visible;display:inline;overflow:visible;enable-background:accumulate" id="path6010" d="m 633.69998,1246.3622 -3.4,3.4 1.7,0 0,3.4 5.1,0 0,-3.4 1.7,0 -3.4,-3.4 z m 10.2,0 0,1.7 -2.23125,0 -1.16875,1.275 0,3.825 5.1,0 0,-6.8 z m -10.2,10.2 -1.7,0 0,6.8 1.7,0 0,-1.7 1.7,0 0,1.7 1.7,0 0,-6.8 -1.7,0 z m 9.35,-1.7 -3.4,4.25 1.7,0 -1.7,2.55 2.55,0 0,1.7 1.7,0 0,-1.7 2.55,0 -1.7,-2.55 1.7,0 z"/><path id="path5947" d="m 633.69998,1246.3622 -3.4,3.4 1.7,0 0,3.4 5.1,0 0,-3.4 1.7,0 -3.4,-3.4 z m 10.2,0 0,1.7 -2.23125,0 -1.16875,1.275 0,3.825 5.1,0 0,-6.8 z m -10.2,10.2 -1.7,0 0,6.8 1.7,0 0,-1.7 1.7,0 0,1.7 1.7,0 0,-6.8 -1.7,0 z m 9.35,-1.7 -3.4,4.25 1.7,0 -1.7,2.55 2.55,0 0,1.7 1.7,0 0,-1.7 2.55,0 -1.7,-2.55 1.7,0 z" style="color:#000;fill:#444;fill-opacity:1;fill-rule:nonzero;stroke:none;stroke-width:.46545455;marker:none;visibility:visible;display:inline;overflow:visible;enable-background:accumulate"/></g><rect id="rect5991" width="12" height="12" x="672" y="1242.362" style="opacity:.5;color:#000;fill:none;stroke:none;stroke-width:2;marker:none;visibility:visible;display:inline;overflow:visible;enable-background:accumulate"/></g></g></svg>