<svg xmlns="http://www.w3.org/2000/svg" xmlns:svg="http://www.w3.org/2000/svg" id="svg4764" width="12" height="12" x="0" y="0" enable-background="new -402.5 403.5 12 12" version="1.1" viewBox="-402.5 403.5 12 12" xml:space="preserve"><metadata id="metadata27"/><g id="layer1" transform="translate(0,-1040.3622)"><path style="fill:#454545;stroke-width:0;stroke-miterlimit:4;stroke-dasharray:none;stroke:#fff;stroke-opacity:1;stroke-linejoin:round;opacity:.29999999999999999;stroke-linecap:round" id="path3291-4" d="m -396.5,1444.8622 -2,2 -1,0 0,7 7,0 0,-9 -1,0 z m 0,1 1,0 0,1 -1,0 z m 2,0 1,0 0,1 -1,0 z m -2,2 1,0 2,2 0,1 -2,2 -1,0 -2,-2 0,-1 z m -1,2 0,1 1,0 0,1 1,0 0,-1 1,0 0,-1 z"/><path style="font-size:medium;font-style:normal;font-variant:normal;font-weight:400;font-stretch:normal;text-indent:0;text-align:start;text-decoration:none;line-height:normal;letter-spacing:normal;word-spacing:normal;text-transform:none;direction:ltr;block-progression:tb;writing-mode:lr-tb;text-anchor:start;baseline-shift:baseline;color:#000;fill:#000;fill-opacity:0;stroke:none;stroke-width:2;marker:none;visibility:visible;display:inline;overflow:visible;enable-background:accumulate;font-family:Sans;-inkscape-font-specification:Sans;opacity:.29999999999999999" id="path3098" d="m -396.59375,1443.8622 c -0.23256,0.017 -0.45803,0.1185 -0.625,0.2813 l -1.71875,1.7187 -0.5625,0 c -0.52358,10e-5 -0.99995,0.4764 -1,1 l 0,7 c 5e-5,0.5236 0.47642,0.9999 1,1 l 7,0 c 0.52358,-10e-5 0.99995,-0.4764 1,-1 l 0,-9 c -5e-5,-0.5236 -0.47642,-0.9999 -1,-1 l -1,0 -3,0 c -0.0312,-0 -0.0625,-0 -0.0937,0 z"/><path style="fill:#454545" id="path3291" d="m -396.5,1444.8622 -2,2 -1,0 0,7 7,0 0,-9 -1,0 z m 0,1 1,0 0,1 -1,0 z m 2,0 1,0 0,1 -1,0 z m -2,2 1,0 2,2 0,1 -2,2 -1,0 -2,-2 0,-1 z m -1,2 0,1 1,0 0,1 1,0 0,-1 1,0 0,-1 z"/></g></svg>