<svg xmlns="http://www.w3.org/2000/svg" xmlns:svg="http://www.w3.org/2000/svg" id="svg4460" width="24" height="24" version="1.1"><metadata id="metadata4465"/><g id="layer1" transform="translate(0,-1028.3622)"><g style="display:inline" id="library-24" transform="translate(-240,-70)"><g id="g21640" transform="translate(0,2)"><path style="opacity:.3;color:#000;fill:none;stroke:#fff;stroke-width:2;stroke-linecap:round;stroke-linejoin:round;stroke-miterlimit:4;stroke-opacity:1;stroke-dasharray:none;stroke-dashoffset:0;marker:none;visibility:visible;display:inline;overflow:visible;enable-background:accumulate" id="path14014" d="m 244,1101.3622 0,10 c 3,3 7,2 7,4 l 1,0 0,-9 c 0,-3 -5,-3 -8,-5 z m 17,0 c -3,2 -8,2 -8,5 l 0,9 1,0 c 0,-2 4,-1 7,-4 z"/><g id="g16654" transform="translate(0,-1)"><path id="path7994-9-9" d="m 244,1102.3622 0,10 c 3,3 7,2 7,4 l 1,0 0,-9 c 0,-3 -5,-3 -8,-5 z m 17,0 c -3,2 -8,2 -8,5 l 0,9 1,0 c 0,-2 4,-1 7,-4 z" style="color:#000;fill:#444;fill-opacity:1;fill-rule:nonzero;stroke:none;stroke-width:1;marker:none;visibility:visible;display:inline;overflow:visible;enable-background:accumulate"/></g></g><rect style="opacity:.5;color:#000;fill:none;stroke:none;stroke-width:2;marker:none;visibility:visible;display:inline;overflow:visible;enable-background:accumulate" id="rect22294" width="24" height="24" x="240" y="1098.362"/></g></g></svg>