<svg xmlns="http://www.w3.org/2000/svg" xmlns:svg="http://www.w3.org/2000/svg" id="svg4619" width="18" height="18" version="1.1"><metadata id="metadata4624"/><g id="layer1" transform="translate(0,-1034.3622)"><path style="color:#000;fill:#fff;fill-opacity:1;fill-rule:nonzero;stroke:#fff;stroke-width:2;marker:none;visibility:visible;display:inline;overflow:visible;enable-background:accumulate;opacity:.3" id="path3224" d="m 9.5,1035.3622 -2.4999998,2 0,3 -1.0000002,0 0,1 1.0000002,1 -1.0000002,8 7,0 -1,-8 1,-1 0,-1 -1,0 0,-3 z m 0,2 1,1 0,2 -2,0 0,-2 z"/><path id="rect4650" d="m 9.5,1035.3622 -2.4999998,2 0,3 -1.0000002,0 0,1 1.0000002,1 -1.0000002,8 7,0 -1,-8 1,-1 0,-1 -1,0 0,-3 z m 0,2 1,1 0,2 -2,0 0,-2 z" style="color:#000;fill:#444;fill-opacity:1;fill-rule:nonzero;stroke:none;stroke-width:2;marker:none;visibility:visible;display:inline;overflow:visible;enable-background:accumulate"/><rect style="opacity:0;color:#000;fill:#f7f7f7;fill-opacity:1;fill-rule:nonzero;stroke:none;stroke-width:2;marker:none;visibility:visible;display:inline;overflow:visible;enable-background:accumulate" id="rect3096" width="15" height="3" x="2" y="-4" transform="translate(0,1034.3622)"/></g></svg>