<svg xmlns="http://www.w3.org/2000/svg" xmlns:svg="http://www.w3.org/2000/svg" id="svg4460" width="24" height="24" version="1.1"><metadata id="metadata4465"/><g id="layer1" transform="translate(0,-1028.3622)"><g style="display:inline" id="museum-24" transform="translate(-162,-94)"><g id="g16594" transform="translate(0,-1)"><path id="path15037" d="m 174.5,1126.3622 -6.5,5 13,0 z m -5.5,6 c -0.55401,0 -0.92165,0.4516 -1,1 l 0,7 -1.75,3 c -0.14833,0.2543 -0.25,0.3567 -0.25,0.5 0,0.5 0.63165,0.5 1,0.5 l 15,0 c 0.35499,0 1,0 1,-0.5 0,-0.1462 -0.0866,-0.2199 -0.25,-0.5 l -1.75,-3 0,-7 c 0,-0.554 -0.44599,-1 -1,-1 z" style="opacity:.3;color:#000;fill:#fff;fill-opacity:1;fill-rule:nonzero;stroke:#fff;stroke-width:2;stroke-linecap:round;stroke-linejoin:round;stroke-miterlimit:4;stroke-opacity:1;stroke-dasharray:none;stroke-dashoffset:0;marker:none;visibility:visible;display:inline;overflow:visible;enable-background:accumulate"/><path style="color:#000;fill:#444;fill-opacity:1;fill-rule:nonzero;stroke:none;stroke-width:1;marker:none;visibility:visible;display:inline;overflow:visible;enable-background:accumulate" id="rect7645-6-5-0" d="m 174.5,1126.3622 -6.5,5 13,0 z m -5.5,6 c -0.55401,0 -0.92165,0.4516 -1,1 l 0,7 -1.75,3 c -0.14833,0.2543 -0.25,0.3567 -0.25,0.5 0,0.5 0.63165,0.5 1,0.5 l 15,0 c 0.35499,0 1,0 1,-0.5 0,-0.1462 -0.0866,-0.2199 -0.25,-0.5 l -1.75,-3 0,-7 c 0,-0.554 -0.44599,-1 -1,-1 z m 2,2 c 0.5,0 1,0 1.5,0 0.5,0 1,1 1,1 l 1,2.5 1,-2.5 c 0.22318,-0.558 0.5,-1 1,-1 0.5,0 1,0 1.5,0 0.554,0 1,0.446 1,1 l 0,5 c 0,0.5 -0.5,1 -1,1 -0.5,0 -1,-0.5 -1,-1 l 0,-4 -1.5,3 c 0,0 -0.5,1 -1,1 -0.5,0 -1,-1 -1,-1 l -1.5,-3 0,4 c 0,0.5 -0.5,1 -1,1 -0.5,0 -1,-0.5 -1,-1 l 0,-1 0,-4 c 0,-0.554 0.446,-1 1,-1 z"/></g><rect id="rect22242" width="24" height="24" x="162" y="1122.362" style="opacity:.5;color:#000;fill:none;stroke:none;stroke-width:2;marker:none;visibility:visible;display:inline;overflow:visible;enable-background:accumulate"/></g></g></svg>