<svg xmlns="http://www.w3.org/2000/svg" xmlns:svg="http://www.w3.org/2000/svg" id="svg4619" width="18" height="18" version="1.1"><metadata id="metadata4624"/><g id="layer1" transform="translate(0,-1034.3622)"><g style="display:inline" id="museum-18" transform="translate(-186,-88)"><g id="g21709" transform="translate(-1,-1)"><path style="opacity:.3;color:#000;fill:#fff;fill-opacity:1;fill-rule:nonzero;stroke:#fff;stroke-width:2;stroke-linecap:round;stroke-linejoin:round;stroke-miterlimit:4;stroke-opacity:1;stroke-dasharray:none;stroke-dashoffset:0;marker:none;visibility:visible;display:inline;overflow:visible;enable-background:accumulate" id="path14372" d="m 201,1129.3622 -4.5,-3 -4.5,3 0,1.9445 0,5.0555 -1,1.5 c 0,0.3611 0.23397,0.5 0.5,0.5 l 10,0 c 0.25638,0 0.5,-0.1389 0.5,-0.5 l -1,-1.5 0,-5.0555 z"/><path id="rect7645-6-5-0-1" d="m 196.5,1126.3622 -4.5,3 9,0 z m -3.5,4 c -0.5,0 -1,0.5 -1,0.9445 l 0,5.0555 -1,1.5 c 0,0.3611 0.23397,0.5 0.5,0.5 l 10,0 c 0.25638,0 0.5,-0.1389 0.5,-0.5 l -1,-1.5 0,-5.0555 c 0,-0.4445 -0.5,-0.9445 -1,-0.9445 z m 2,1.5 c 0.5,0 0.5,0 1,1 l 0.5,1 0.5,-1 c 0.5,-1 0.5,-1 1,-1 0.5,0 1,0.5 1,1 l 0,3.5 c 0,0.3611 -0.13889,0.5 -0.5,0.5 -0.36111,0 -0.5,-0.1389 -0.5,-0.5 l 0,-2.8889 -1,1.8889 c -0.2647,0.5 -0.7353,0.5 -1,0 l -1,-1.8889 0,2.8889 c 0,0.3611 -0.13889,0.5 -0.5,0.5 -0.36111,0 -0.50005,-0.1389 -0.50005,-0.5 l 0,-0.7222 5e-5,-2.7778 c 1e-5,-0.5 0.5,-1 1,-1 z" style="color:#000;fill:#444;fill-opacity:1;fill-rule:nonzero;stroke:none;stroke-width:1;marker:none;visibility:visible;display:inline;overflow:visible;enable-background:accumulate"/></g><rect style="opacity:.5;color:#000;fill:none;stroke:none;stroke-width:2;marker:none;visibility:visible;display:inline;overflow:visible;enable-background:accumulate" id="rect22244" width="18" height="18" x="186" y="1122.362"/></g></g></svg>