<svg xmlns="http://www.w3.org/2000/svg" xmlns:svg="http://www.w3.org/2000/svg" id="svg4619" width="18" height="18" version="1.1"><metadata id="metadata4624"/><g id="layer1" transform="translate(0,-1034.3622)"><g style="display:inline" id="place-of-worship-18" transform="translate(-29.999997,-112)"><path id="path9129" d="m 39.5,1149.8622 -1.5,1.5 0,1.5 -2,2 0,6.5 7,0 0,-6.5 -2,-2 0,-1.5 z m -6.5,6 0,5.5 1.5,0 0,-5.5 z m 11.5,0 0,5.5 1.5,0 0,-5.5 z" style="opacity:.3;color:#000;fill:#fff;fill-opacity:1;fill-rule:nonzero;stroke:#fff;stroke-width:2;stroke-linecap:butt;stroke-linejoin:round;stroke-miterlimit:4;stroke-opacity:1;stroke-dasharray:none;stroke-dashoffset:0;marker:none;visibility:visible;display:inline;overflow:visible;enable-background:accumulate"/><g id="g8824" transform="translate(0,24)"><rect id="rect8832" width="18" height="18" x="30" y="1122.362" style="opacity:.5;color:#000;fill:none;stroke:none;stroke-width:2;marker:none;visibility:visible;display:inline;overflow:visible;enable-background:accumulate"/></g><path style="color:#000;fill:#444;fill-opacity:1;fill-rule:nonzero;stroke:none;stroke-width:2;marker:none;visibility:visible;display:inline;overflow:visible;enable-background:accumulate" id="path9064" d="m 39.5,1149.8622 -1.5,1.5 0,1.5 -2,2 0,6.5 7,0 0,-6.5 -2,-2 0,-1.5 z m -6.5,6 0,5.5 1.5,0 0,-5.5 z m 11.5,0 0,5.5 1.5,0 0,-5.5 z"/></g></g></svg>