<svg xmlns="http://www.w3.org/2000/svg" xmlns:svg="http://www.w3.org/2000/svg" id="svg4460" width="24" height="24" version="1.1"><metadata id="metadata4465"/><g id="layer1" transform="translate(0,-1028.3622)"><path style="font-size:medium;font-style:normal;font-variant:normal;font-weight:400;font-stretch:normal;text-indent:0;text-align:start;text-decoration:none;line-height:normal;letter-spacing:normal;word-spacing:normal;text-transform:none;direction:ltr;block-progression:tb;writing-mode:lr-tb;text-anchor:start;baseline-shift:baseline;opacity:.3;color:#000;fill:#fff;fill-opacity:1;stroke:none;stroke-width:3;marker:none;visibility:visible;display:inline;overflow:visible;enable-background:accumulate;font-family:Sans;-inkscape-font-specification:Sans" id="path3170" d="M 20.4375 2 C 19.670898 2.04 19.035749 2.4275 18.625 2.9375 L 18.59375 2.9375 L 16 6 L 16 4 A 0.99323983 0.99323983 0 0 0 15 3 L 6 3 C 4.9129787 3 4 3.9129787 4 5 L 4 18 C 4 19.087021 4.9129787 20 6 20 L 19 20 C 20.087021 20 21 19.087021 21 18 L 21 12 A 0.99323983 0.99323983 0 0 0 20 11 L 18.40625 11 L 22.46875 6.09375 A 1.0001 1.0001 0 0 0 22.5 6.0625 C 22.789534 5.6558 22.912116 5.2081 22.96875 4.75 C 23.02538 4.2919 23.03759 3.79155 22.75 3.28125 C 22.262632 2.41675 21.359464 1.9512 20.4375 2 z M 15.1875 6.96875 L 12.96875 9.59375 L 11.90625 8.34375 C 10.972048 7.25125 9.3595702 7.14935 8.28125 8.09375 C 8.1707918 8.1903625 8.0853191 8.3272895 8 8.4375 L 8 7 L 15 7 A 0.99323983 0.99323983 0 0 0 15.1875 6.96875 z M 8 11.4375 C 8.0512869 11.511647 8.0974448 11.586748 8.15625 11.65625 L 11.15625 15.1875 C 11.538274 15.6228 12.043586 15.898837 12.5625 16 L 8 16 L 8 11.4375 z M 17 12.6875 L 17 16 L 13.59375 16 C 14.109658 15.881047 14.598751 15.570162 14.96875 15.125 L 17 12.6875 z" transform="translate(0,1028.3622)"/><path style="color:#000;fill:#444;fill-opacity:1;stroke:none;stroke-width:2;marker:none;visibility:visible;display:inline;overflow:visible;enable-background:accumulate" id="rect11284" d="M 6 4 C 5.446 4 5 4.446 5 5 L 5 18 C 5 18.554 5.446 19 6 19 L 19 19 C 19.554 19 20 18.554 20 18 L 20 12 L 18 12 L 18 17 L 7 17 L 7 6 L 15 6 L 15 4 L 6 4 z" transform="translate(0,1028.3622)"/><path style="font-size:medium;font-style:normal;font-variant:normal;font-weight:400;font-stretch:normal;text-indent:0;text-align:start;text-decoration:none;line-height:normal;letter-spacing:normal;word-spacing:normal;text-transform:none;direction:ltr;block-progression:tb;writing-mode:lr-tb;text-anchor:start;baseline-shift:baseline;color:#000;fill:#444;fill-opacity:1;stroke:none;stroke-width:3;marker:none;visibility:visible;display:inline;overflow:visible;enable-background:accumulate;font-family:Sans;-inkscape-font-specification:Sans" id="path3846" d="m 19.375,1031.9218 -6.375,7.625 -1.84375,-2.1562 c -0.537713,-0.6288 -1.6109141,-0.7059 -2.2335898,-0.1606 -0.6226757,0.5448 -0.4932954,1.5661 -0.01641,2.1298 l 2.988951,3.5331 c 0.570015,0.6494 1.729091,0.6336 2.28125,-0.031 l 7.511049,-9.0331 c 0.3125,-0.4389 0.434264,-1.2459 0.187812,-1.6831 -0.294535,-0.5225 -0.861578,-0.8103 -1.375312,-0.7831 -0.501235,0.026 -0.882512,0.2511 -1.125,0.5596 z"/></g></svg>