<svg xmlns="http://www.w3.org/2000/svg" xmlns:svg="http://www.w3.org/2000/svg" id="svg4460" width="24" height="24" version="1.1"><metadata id="metadata4465"/><g id="layer1" transform="translate(0,-1028.3622)"><g style="display:inline" id="post-24" transform="translate(-396,-22)"><g id="g21490" transform="translate(0,-1)"><path style="opacity:.3;color:#000;fill:#fff;fill-opacity:1;stroke:#fff;stroke-width:2;stroke-linecap:butt;stroke-linejoin:round;stroke-miterlimit:4;stroke-opacity:1;stroke-dasharray:none;stroke-dashoffset:0;marker:none;visibility:visible;display:inline;overflow:visible;enable-background:accumulate" id="path7093" d="m 400.90625,1057.3622 c -0.4,0 -0.90625,0.5 -0.90625,1 l 0,9 c 0,0.5 0.50625,1 0.90625,1 l 15.1875,0 c 0.4,0 0.90625,-0.5 0.90625,-1 l 0,-9 c 0,-0.5 -0.50625,-1 -0.90625,-1 z"/><path style="color:#000;fill:#444;fill-opacity:1;stroke:none;stroke-width:2;marker:none;visibility:visible;display:inline;overflow:visible;enable-background:accumulate" id="path7085" d="m 401,1057.3622 c -1,0 -0.5,0.3393 0,0.75 l 7,5.75 8,-5.75 c 0.5,-0.4107 1,-0.75 0,-0.75 l -8,0 z m -1,1.5 0,8.5 c 0,0.5 0.50625,1 0.90625,1 l 15.1875,0 c 0.4,0 0.90625,-0.5 0.90625,-1 l 0,-8.5 -9,6.5 z"/></g><rect style="opacity:.5;color:#000;fill:none;stroke:none;stroke-width:2;marker:none;visibility:visible;display:inline;overflow:visible;enable-background:accumulate" id="rect22282-8" width="24" height="24" x="396" y="1050.362"/></g></g></svg>