<svg xmlns="http://www.w3.org/2000/svg" xmlns:svg="http://www.w3.org/2000/svg" id="svg4460" width="24" height="24" version="1.1"><metadata id="metadata4465"/><g id="layer1" transform="translate(0,-1028.3622)"><path style="font-size:medium;font-style:normal;font-variant:normal;font-weight:400;font-stretch:normal;text-indent:0;text-align:start;text-decoration:none;line-height:normal;letter-spacing:normal;word-spacing:normal;text-transform:none;direction:ltr;block-progression:tb;writing-mode:lr-tb;text-anchor:start;baseline-shift:baseline;color:#000;fill:#fff;fill-opacity:1;stroke:none;stroke-width:2;marker:none;visibility:visible;display:inline;overflow:visible;enable-background:accumulate;font-family:Sans;-inkscape-font-specification:Sans;opacity:.3" id="path3259" d="M 9.8125 1 A 1.0001 1.0001 0 0 0 9 2 C 7.3552972 2 6 3.3553 6 5 L 6 15 C 6 16.223624 6.7511003 17.285681 7.8125 17.75 L 5.28125 20.28125 C 4.7068834 20.83665 5.201277 22.0188 6 22 L 10 22 C 10.335757 22 10.665381 21.81575 10.84375 21.53125 L 12.5 19.0625 L 14.15625 21.53125 C 14.334619 21.81575 14.664243 21.9988 15 22 L 19 22 C 19.798723 22.019 20.293117 20.83665 19.71875 20.28125 L 17.1875 17.75 C 18.2489 17.285681 19 16.223624 19 15 L 19 5 C 19 3.3553 17.644703 2 16 2 A 1.0001 1.0001 0 0 0 15 1 L 10 1 A 1.0001 1.0001 0 0 0 9.90625 1 A 1.0001 1.0001 0 0 0 9.8125 1 z M 11 3 L 14 3 A 1.0001 1.0001 0 0 0 14.8125 4 L 10.1875 4 A 1.0001 1.0001 0 0 0 11 3 z M 9 4 L 10 4 C 8.9092972 4 8 4.9093 8 6 L 8 5 C 8 4.4287 8.4287028 4 9 4 z M 15 4 L 16 4 C 16.571297 4 17 4.4287 17 5 L 17 6 C 17 4.9093 16.090703 4 15 4 z M 10 6 L 15 6 L 15 8 L 10 8 L 10 6 z M 8 9.1875 A 1.0001 1.0001 0 0 0 9 10 L 16 10 A 1.0001 1.0001 0 0 0 17 9.1875 L 17 14 L 17 15 C 17 15.5713 16.571297 16 16 16 L 15 16 L 10 16 L 9 16 C 8.4287028 16 8 15.5713 8 15 L 8 14 L 8 9.1875 z M 8 14 C 8 15.0927 8.9072754 16 10 16 C 11.092725 16 12 15.0927 12 14 C 12 12.9073 11.092725 12 10 12 C 8.9072754 12 8 12.9073 8 14 z M 15 16 C 16.092725 16 17 15.0927 17 14 C 17 12.9073 16.092725 12 15 12 C 13.907275 12 13 12.9073 13 14 C 13 15.0927 13.907275 16 15 16 z" transform="translate(0,1028.3622)"/><path style="fill:#444;fill-opacity:1;stroke:none" id="rect3004" d="M 10 2 L 10 3 L 9 3 C 7.892 3 7 3.892 7 5 L 7 15 C 7 16.108 7.892 17 9 17 L 16 17 C 17.108 17 18 16.108 18 15 L 18 5 C 18 3.892 17.108 3 16 3 L 15 3 L 15 2 L 10 2 z M 10 5 L 15 5 C 15.554 5 16 5.446 16 6 L 16 9 L 9 9 L 9 6 C 9 5.446 9.446 5 10 5 z M 10 13 C 10.552285 13 11 13.447715 11 14 C 11 14.552285 10.552285 15 10 15 C 9.4477153 15 9 14.552285 9 14 C 9 13.447715 9.4477153 13 10 13 z M 15 13 C 15.552285 13 16 13.447715 16 14 C 16 14.552285 15.552285 15 15 15 C 14.447715 15 14 14.552285 14 14 C 14 13.447715 14.447715 13 15 13 z" transform="translate(0,1028.3622)"/><path id="path3067-4" d="m 11.999997,1046.3622 -2.9999975,0 -3,3 3.999997,0 z" style="fill:#444;fill-opacity:1;stroke:none"/><path style="fill:#444;fill-opacity:1;stroke:none" id="path3069-8" d="m 12.999997,1046.3622 3.000003,0 2.999997,3 -4,0 z"/></g></svg>