<svg xmlns="http://www.w3.org/2000/svg" xmlns:svg="http://www.w3.org/2000/svg" id="svg4764" width="12" height="12" version="1.1"><metadata id="metadata4769"/><g id="layer1" transform="translate(0,-1040.3622)"><path style="font-size:medium;font-style:normal;font-variant:normal;font-weight:400;font-stretch:normal;text-indent:0;text-align:start;text-decoration:none;line-height:normal;letter-spacing:normal;word-spacing:normal;text-transform:none;direction:ltr;block-progression:tb;writing-mode:lr-tb;text-anchor:start;baseline-shift:baseline;color:#000;fill:#fff;fill-opacity:1;stroke:none;stroke-width:2;marker:none;visibility:visible;display:inline;overflow:visible;enable-background:accumulate;font-family:Sans;-inkscape-font-specification:Sans;opacity:.3" id="path3828" d="M 4.65625,0 C 4.4488378,0.022 4.249025,0.1107 4.09375,0.25 l -1.75,1.5 C 2.1298644,1.936 2.0013034,2.2165 2,2.5 L 2,8 c 1.85e-5,0.1844899 0.087984,0.3460165 0.1875,0.5 C 2.0879839,8.6539835 2.0000185,8.8155101 2,9 l 0,1 c 5.24e-5,0.5236 0.4764155,0.9999 1,1 l 3,0 c 0.1844845,-3.5e-5 0.3460107,-0.05674 0.5,-0.15625 C 6.6539893,10.943264 6.8155155,10.999965 7,11 l 3,0 c 0.523584,-10e-5 0.999948,-0.4764 1,-1 L 11,9 C 10.999982,8.8155101 10.912016,8.6539835 10.8125,8.5 10.912016,8.3460165 10.999982,8.1844899 11,8 L 11,2.5 C 11.0024,2.1857 10.846661,1.8741 10.59375,1.6875 l -2,-1.5 C 8.4222735,0.0645 8.2110459,-0.0023 8,0 6.8854167,0 5.7708333,0 4.65625,0 z" transform="translate(0,1040.3622)"/><path style="fill:#444;fill-opacity:1;stroke:none" id="path3212" d="M 4.75,1 3,2.5 3,8 10,8 10,2.5 8,1 z M 5,2 8,2 8,3 5,3 z M 4,4 9,4 9,5 4,5 z M 4,6 5,6 5,7 4,7 z M 8,6 9,6 9,7 8,7 z" transform="translate(0,1040.3622)"/><path style="fill:#444;fill-opacity:1;stroke:none" id="path3266" d="m 4,1048.8622 0,0.5 -1,0 0,1 3,0 0,-1 0,-0.5 z"/><path id="path3268" d="m 9,1048.8622 -2,0 c 0,0.5 0,1 0,1.5 l 3,0 0,-1 -1,0 z" style="fill:#444;fill-opacity:1;stroke:none"/></g></svg>