<svg xmlns="http://www.w3.org/2000/svg" xmlns:svg="http://www.w3.org/2000/svg" id="svg4460" width="24" height="24" version="1.1"><metadata id="metadata4465"/><g id="layer1" transform="translate(0,-1028.3622)"><path style="font-size:medium;font-style:normal;font-variant:normal;font-weight:400;font-stretch:normal;text-indent:0;text-align:start;text-decoration:none;line-height:normal;letter-spacing:normal;word-spacing:normal;text-transform:none;direction:ltr;block-progression:tb;writing-mode:lr-tb;text-anchor:start;baseline-shift:baseline;color:#000;fill:#fff;fill-opacity:1;stroke:none;stroke-width:2;marker:none;visibility:visible;display:inline;overflow:visible;enable-background:accumulate;font-family:Sans;-inkscape-font-specification:Sans;opacity:.3" id="path4064" d="M 12.5 1 C 8.4112783 1 5 4.1008 5 8 L 5 16 C 5 17.0907 5.9092972 18 7 18 L 7.5625 18 L 5.28125 20.28125 C 4.7068834 20.83665 5.201277 22.0188 6 22 L 10 22 C 10.335757 22 10.665381 21.81575 10.84375 21.53125 L 12.5 19.0625 L 14.15625 21.53125 C 14.334619 21.81575 14.664243 21.9988 15 22 L 19 22 C 19.798723 22.019 20.293117 20.83665 19.71875 20.28125 L 17.4375 18 L 18 18 C 19.090703 18 20 17.0907 20 16 L 20 8 C 20 4.1008 16.588721 1 12.5 1 z M 11 5.53125 L 11 9 L 9 9 L 9 8 C 9 6.8778 9.862402 6.03275 11 5.53125 z M 14 5.53125 C 15.137598 6.03275 16 6.8778 16 8 L 16 9 L 14 9 L 14 5.53125 z" transform="translate(0,1028.3622)"/><path style="fill:#444;fill-opacity:1;stroke:none" id="rect3109" d="M 12.5 2 C 8.9101492 2 6 4.686308 6 8 L 6 16 C 6 16.554 6.446 17 7 17 L 18 17 C 18.554 17 19 16.554 19 16 L 19 8 C 19 4.686308 16.08985 2 12.5 2 z M 12 4.0625 L 12 10 L 8 10 L 8 8 C 8 5.9435518 9.753915 4.2868455 12 4.0625 z M 13 4.0625 C 15.246085 4.2868455 17 5.9435518 17 8 L 17 10 L 13 10 L 13 4.0625 z M 9 13 C 9.5522847 13 10 13.447715 10 14 C 10 14.552285 9.5522847 15 9 15 C 8.4477153 15 8 14.552285 8 14 C 8 13.447715 8.4477153 13 9 13 z M 16 13 C 16.552285 13 17 13.447715 17 14 C 17 14.552285 16.552285 15 16 15 C 15.447715 15 15 14.552285 15 14 C 15 13.447715 15.447715 13 16 13 z" transform="translate(0,1028.3622)"/><path id="path3067-4" d="m 11.999997,1046.3622 -2.999997,0 -3,3 3.999997,0 z" style="fill:#444;fill-opacity:1;stroke:none"/><path style="fill:#444;fill-opacity:1;stroke:none" id="path3069-8" d="m 12.999997,1046.3622 3.000003,0 2.999997,3 -4,0 z"/></g></svg>