<svg xmlns="http://www.w3.org/2000/svg" xmlns:svg="http://www.w3.org/2000/svg" id="svg4619" width="18" height="18" version="1.1"><metadata id="metadata4624"/><g id="layer1" transform="translate(0,-1034.3622)"><path style="font-size:medium;font-style:normal;font-variant:normal;font-weight:400;font-stretch:normal;text-indent:0;text-align:start;text-decoration:none;line-height:normal;letter-spacing:normal;word-spacing:normal;text-transform:none;direction:ltr;block-progression:tb;writing-mode:lr-tb;text-anchor:start;baseline-shift:baseline;color:#000;fill:#fff;fill-opacity:1;stroke:none;stroke-width:2;marker:none;visibility:visible;display:inline;overflow:visible;enable-background:accumulate;font-family:Sans;-inkscape-font-specification:Sans;opacity:.3" id="path3815" d="M 6.84375,1 C 6.6071625,1.025 6.3809879,1.1384 6.21875,1.3125 l -2.9375,3 C 3.1048751,4.4948 3.0019888,4.7463 3,5 c 0,2 0,4 0,6 0,0.754632 0.4330229,1.410119 1.0625,1.75 -0.026296,0.08975 -0.06416,0.155783 -0.0625,0.25 -0.5235845,5.2e-5 -0.9999476,0.476416 -1,1 l 0,1 c 5.24e-5,0.523584 0.4764155,0.999948 1,1 l 4,0 c 0.5235845,-5.2e-5 0.9999476,-0.476416 1,-1 l 0,-2 1,0 0,2 c 5.2e-5,0.523584 0.476416,0.999948 1,1 l 4,0 c 0.523584,-5.2e-5 0.999948,-0.476416 1,-1 l 0,-1 c -5.2e-5,-0.523584 -0.476416,-0.999948 -1,-1 -9e-6,-0.08726 -0.03802,-0.167346 -0.0625,-0.25 C 15.566977,12.410119 16,11.754632 16,11 16,9 16,7 16,5 15.998,4.7463 15.895125,4.4948 15.71875,4.3125 l -2.9375,-3 C 12.596695,1.1176 12.330935,1.002 12.0625,1 z M 7,6 12,6 12,7 7,7 z" transform="translate(0,1034.3622)"/><path style="fill:#444;fill-opacity:1;stroke:none" id="rect3226" d="M 6.9375 2 L 4 5 L 4 10.25 L 4 11 C 4 11.554 4.446 12 5 12 L 14 12 C 14.554 12 15 11.554 15 11 L 15 10.25 L 15 5 L 12.0625 2 L 6.9375 2 z M 8 3 L 11 3 L 11 4 L 8 4 L 8 3 z M 6 5 L 13 5 L 13 8 L 6 8 L 6 5 z M 6 9 L 7.5 9 L 7.5 10.5 L 6 10.5 L 6 9 z M 11.5 9 L 13 9 L 13 10.5 L 11.5 10.5 L 11.5 9 z" transform="translate(0,1034.3622)"/><path style="fill:#444;fill-opacity:1;stroke:none" id="path3787-5" d="m 8,1047.3622 -3,0 0,1 -1,0 0,1 4,0 z"/><path id="path3122" d="m 11,1047.3622 3,0 0,1 1,0 0,1 -4,0 z" style="fill:#444;fill-opacity:1;stroke:none"/></g></svg>