<svg xmlns="http://www.w3.org/2000/svg" xmlns:svg="http://www.w3.org/2000/svg" id="svg4619" width="18" height="18" version="1.1"><metadata id="metadata4624"/><g id="layer1" transform="translate(0,-1034.3622)"><path style="font-size:medium;font-style:normal;font-variant:normal;font-weight:400;font-stretch:normal;text-indent:0;text-align:start;text-decoration:none;line-height:normal;letter-spacing:normal;word-spacing:normal;text-transform:none;direction:ltr;block-progression:tb;writing-mode:lr-tb;text-anchor:start;baseline-shift:baseline;color:#000;fill:#fff;fill-opacity:1;stroke:none;stroke-width:2;marker:none;visibility:visible;display:inline;overflow:visible;enable-background:accumulate;font-family:Sans;-inkscape-font-specification:Sans;opacity:.3" id="path3102" d="M 9.5 1 C 6.4892909 1 4 3.4029 4 6.375 C 3.9998504 8.0882 4 9.86775 4 11.34375 C 4 12.03585 4.4303163 12.625475 5.03125 12.875 C 5.0248086 12.92134 4.9991698 12.952891 5 13 C 4.4764155 13.000052 4.0000524 13.476416 4 14 L 4 15 C 4.0000524 15.523584 4.4764155 15.999948 5 16 L 9 16 C 9.1844845 15.999982 9.3460107 15.943266 9.5 15.84375 C 9.6539893 15.943266 9.8155155 15.999982 10 16 L 14 16 C 14.523584 15.999948 14.999948 15.523584 15 15 L 15 14 C 14.999948 13.476416 14.523584 13.000052 14 13 C 13.999996 12.956368 13.975121 12.917728 13.96875 12.875 C 14.569684 12.625475 15 12.03585 15 11.34375 L 15 6.375 C 15 3.4029 12.510709 1 9.5 1 z M 8 5.1875 L 8 7 L 7.5 7 L 7.5 6.5 C 7.5 5.9982 7.6951723 5.5367 8 5.1875 z M 11 5.1875 C 11.315661 5.5349 11.5 5.988 11.5 6.5 L 11.5 7 L 11 7 L 11 5.1875 z" transform="translate(0,1034.3622)"/><path style="fill:#444;fill-opacity:1;stroke:none" id="rect3109-8" d="M 9.5 2 C 7.0147186 2 5 3.9587535 5 6.375 C 4.9998504 8.0880318 5 9.86775 5 11.34375 C 5 11.70385 5.3039615 12 5.6875 12 L 13.3125 12 C 13.696039 12 14 11.70385 14 11.34375 L 14 6.375 C 14 3.9587535 11.985281 2 9.5 2 z M 8.90625 3.5625 C 8.9367478 3.5562593 8.9691727 3.5678075 9 3.5625 L 9 8 L 6.5 8 L 6.5 6.5 C 6.5 5.0502442 7.5392006 3.8422371 8.90625 3.5625 z M 10 3.5625 C 11.412646 3.8057143 12.5 5.0179013 12.5 6.5 L 12.5 8 L 10 8 L 10 3.5625 z M 6.5 9.5 L 8 9.5 L 8 11 L 6.5 11 L 6.5 9.5 z M 11 9.5 L 12.5 9.5 L 12.5 11 L 11 11 L 11 9.5 z" transform="translate(0,1034.3622)"/><path style="fill:#444;fill-opacity:1;stroke:none" id="path3787-5" d="m 9,1047.3622 -3,0 0,1 -1,0 0,1 4,0 z"/><path id="path3122" d="m 10,1047.3622 3,0 0,1 1,0 0,1 -4,0 z" style="fill:#444;fill-opacity:1;stroke:none"/></g></svg>