<svg xmlns="http://www.w3.org/2000/svg" xmlns:svg="http://www.w3.org/2000/svg" id="svg4764" width="12" height="12" version="1.1"><metadata id="metadata4769"/><g id="layer1" transform="translate(0,-1040.3622)"><path style="font-size:medium;font-style:normal;font-variant:normal;font-weight:400;font-stretch:normal;text-indent:0;text-align:start;text-decoration:none;line-height:normal;letter-spacing:normal;word-spacing:normal;text-transform:none;direction:ltr;block-progression:tb;writing-mode:lr-tb;text-anchor:start;baseline-shift:baseline;color:#000;fill:#fff;fill-opacity:1;stroke:none;stroke-width:2;marker:none;visibility:visible;display:inline;overflow:visible;enable-background:accumulate;font-family:Sans;-inkscape-font-specification:Sans;opacity:.3" id="path3088" d="M 4.90625,0 C 4.6736869,0.017 4.4482242,0.11845 4.28125,0.28125 l -1,1 C 3.0975571,1.47105 2.9938957,1.736 3,2 L 3,7 3,8 C 2.4764155,8.0000524 2.0000524,8.4764155 2,9 l 0,1 c 5.24e-5,0.523584 0.4764155,0.999948 1,1 l 3,0 c 0.1844845,-1.8e-5 0.3460107,-0.05673 0.5,-0.15625 C 6.6539893,10.943266 6.8155155,10.999982 7,11 l 3,0 c 0.523584,-5.2e-5 0.999948,-0.476416 1,-1 L 11,9 C 10.999948,8.4764155 10.523584,8.0000524 10,8 L 10,7 10,2 C 10.0061,1.736 9.902443,1.47105 9.71875,1.28125 l -1,-1 C 8.5289802,0.09755 8.2640632,-0.0061 8,0 6.96875,0 5.9375,0 4.90625,0 z" transform="translate(0,1040.3622)"/><path style="fill:#444;fill-opacity:1;stroke:none" id="path3108" d="M 5 1 L 4 2 L 4 7 L 4 8 L 9 8 L 9 7 L 9 2 L 8 1 L 5 1 z M 6 2 L 7 2 L 8 3 L 8 4 L 5 4 L 5 3 L 6 2 z M 5 6 L 6 6 L 6 7 L 5 7 L 5 6 z M 7 6 L 8 6 L 8 7 L 7 7 L 7 6 z" transform="translate(0,1040.3622)"/><path style="fill:#444;fill-opacity:1;stroke:none" id="path3266" d="m 4,1048.8622 0,0.5 -1,0 0,1 3,0 0,-1 0,-0.5 z"/><path id="path3268" d="m 9,1048.8622 -2.02167,0 0.02167,0.5 0,1 3,0 0,-1 -1,0 z" style="fill:#444;fill-opacity:1;stroke:none"/></g></svg>