<svg xmlns="http://www.w3.org/2000/svg" xmlns:svg="http://www.w3.org/2000/svg" id="svg4764" width="12" height="12" version="1.1"><metadata id="metadata4769"/><g id="layer1" transform="translate(0,-1040.3622)"><g style="display:inline" id="roadblock-12" transform="translate(-594,-33.999963)"><g id="g13423"><path style="opacity:.3;color:#000;fill:#fff;fill-opacity:1;fill-rule:nonzero;stroke:#fff;stroke-width:2;stroke-linecap:round;stroke-linejoin:round;stroke-miterlimit:4;stroke-opacity:1;stroke-dasharray:none;stroke-dashoffset:0;marker:none;visibility:visible;display:inline;overflow:visible;enable-background:accumulate" id="path13382" d="m 600.5,1075.3622 c -2.48528,0 -4.5,2.0147 -4.5,4.5 0,2.4853 2.01472,4.5 4.5,4.5 2.48528,0 4.5,-2.0147 4.5,-4.5 0,-2.4853 -2.01472,-4.5 -4.5,-4.5 z"/><path id="path8564-0-9" d="m 600.5,1075.3622 c -2.48528,0 -4.5,2.0147 -4.5,4.5 0,2.4853 2.01472,4.5 4.5,4.5 2.48528,0 4.5,-2.0147 4.5,-4.5 0,-2.4853 -2.01472,-4.5 -4.5,-4.5 z m -2.5,4 5,0 0,1 -5,0 0,-1 z" style="color:#000;fill:#444;fill-opacity:1;fill-rule:nonzero;stroke:none;stroke-width:2;marker:none;visibility:visible;display:inline;overflow:visible;enable-background:accumulate"/></g><rect style="color:#000;fill:none;stroke:none;stroke-width:2;marker:none;visibility:visible;display:inline;overflow:visible;enable-background:accumulate" id="rect13476" width="12" height="12" x="594" y="1074.362"/></g></g></svg>