<svg xmlns="http://www.w3.org/2000/svg" xmlns:svg="http://www.w3.org/2000/svg" id="svg4460" width="24" height="24" x="0" y="0" enable-background="new -402.5 403.5 24 24" version="1.1" viewBox="-402.5 403.5 24 24" xml:space="preserve"><metadata id="metadata23"/><path style="opacity:.29999999999999999;fill:#fff;stroke:#fff;stroke-width:2;stroke-miterlimit:10;stroke-opacity:1;fill-opacity:1" id="path17" stroke-miterlimit="10" d="m -382.5,410.5 -4,0 0,-2 c 0,-0.553 -0.448,-1 -1,-1 l -5,0 c -0.552,0 -1,0.447 -1,1 l 0,2 -4,0 c -0.552,0 -1,0.447 -1,1 l 0,10 c 0,0.553 0.448,1 1,1 l 15,0 c 0.552,0 1,-0.447 1,-1 l 0,-10 c 0,-0.553 -0.448,-1 -1,-1 z"/><path style="fill:#454545" id="path19" d="m -382.5,410.5 -4,0 0,-2 c 0,-0.553 -0.448,-1 -1,-1 l -5,0 c -0.552,0 -1,0.447 -1,1 l 0,2 -4,0 c -0.552,0 -1,0.447 -1,1 l 0,10 c 0,0.553 0.448,1 1,1 l 15,0 c 0.552,0 1,-0.447 1,-1 l 0,-10 c 0,-0.553 -0.448,-1 -1,-1 z m -12,11 -1,0 0,-10 1,0 z m 7,-11 -5,0 0,-2 5,0 z m 3,11 -1,0 0,-10 1,0 z"/></svg>