<svg xmlns="http://www.w3.org/2000/svg" xmlns:svg="http://www.w3.org/2000/svg" id="svg4460" width="24" height="24" version="1.1"><metadata id="metadata4465"/><g id="layer1" transform="translate(0,-1028.3622)"><g style="display:inline" id="theatre-24" transform="translate(-318,-238)"><path style="opacity:.3;color:#000;fill:#fff;fill-opacity:1;fill-rule:nonzero;stroke:#fff;stroke-width:2;stroke-linecap:round;stroke-linejoin:round;stroke-miterlimit:4;stroke-opacity:1;stroke-dasharray:none;stroke-dashoffset:0;marker:none;visibility:visible;display:inline;overflow:visible;enable-background:accumulate" id="path15112" d="m 323,1269.3622 c -0.4714,0 -1,0.5 -1,1 l 0,7 c 0,2.216 1,5 5,5 0.35868,0 0.68618,-0.017 1,-0.062 l 0,-2.9375 -4,0 c 0,0 0.5,-2 3,-2 0.5,0 0.69653,0.074 1,0.1875 l 0,-2.1875 c 0,-0.9167 0.36529,-1.6826 1,-2 1,-0.5 1.40372,-0.2981 2,0 1,0.5 1,0.5 1,0.5 l 0,-3.5 c 0,-0.5 -0.5286,-1 -1,-1 -1,0 -2,1 -4,1 -2,0 -3,-1 -4,-1 z m 7,5 c -0.4714,0 -1,0.5 -1,1 l 0,7 c 0,2.216 1,5 5,5 4,0 5,-2.784 5,-5 l 0,-7 c 0,-0.5 -0.5286,-1 -1,-1 -1,0 -2,1 -4,1 -2,0 -3,-1 -4,-1 z"/><rect id="rect6492" width="24" height="24" x="318" y="1266.362" style="color:#000;fill:none;stroke:none;stroke-width:2;marker:none;visibility:visible;display:inline;overflow:visible;enable-background:accumulate"/><path id="path6342" d="m 323,1269.3622 c -0.4714,0 -1,0.5 -1,1 l 0,7 c 0,2.216 1,5 5,5 0.35868,0 0.68618,-0.017 1,-0.062 l 0,-2.9375 -4,0 c 0,0 0.5,-2 3,-2 0.5,0 0.69653,0.074 1,0.1875 l 0,-2.1875 c 0,-0.9167 0.36529,-1.6826 1,-2 1,-0.5 1.40372,-0.2981 2,0 1,0.5 1,0.5 1,0.5 l 0,-3.5 c 0,-0.5 -0.5286,-1 -1,-1 -1,0 -2,1 -4,1 -2,0 -3,-1 -4,-1 z m 1.75,3.5 c 0.69036,0 1.25,0.5596 1.25,1.25 0,0.6904 -0.55964,1.25 -1.25,1.25 -0.69036,0 -1.25,-0.5596 -1.25,-1.25 0,-0.6904 0.55964,-1.25 1.25,-1.25 z m 5.25,1.5 c -0.4714,0 -1,0.5 -1,1 l 0,7 c 0,2.216 1,5 5,5 4,0 5,-2.784 5,-5 l 0,-7 c 0,-0.5 -0.5286,-1 -1,-1 -1,0 -2,1 -4,1 -2,0 -3,-1 -4,-1 z m 1.75,3.5 c 0.69036,0 1.25,0.5596 1.25,1.25 0,0.6904 -0.55964,1.25 -1.25,1.25 -0.69036,0 -1.25,-0.5596 -1.25,-1.25 0,-0.6904 0.55964,-1.25 1.25,-1.25 z m 4.5,0 c 0.69036,0 1.25,0.5596 1.25,1.25 0,0.6904 -0.55964,1.25 -1.25,1.25 -0.69036,0 -1.25,-0.5596 -1.25,-1.25 0,-0.6904 0.55964,-1.25 1.25,-1.25 z m -5.25,5.5 6,0 c 0,0 -0.5,2 -3,2 -2.5,0 -3,-2 -3,-2 z" style="color:#000;fill:#444;fill-opacity:1;fill-rule:nonzero;stroke:none;stroke-width:.055;marker:none;visibility:visible;display:inline;overflow:visible;enable-background:accumulate"/></g></g></svg>