<svg xmlns="http://www.w3.org/2000/svg" xmlns:svg="http://www.w3.org/2000/svg" id="svg4764" width="12" height="12" version="1.1"><metadata id="metadata4769"/><g id="layer1" transform="translate(0,-1040.3622)"><g style="display:inline" id="town-12" transform="translate(-672,-249.99998)"><path id="path9489" d="m 676,1292.8622 -2,1.5 0,5 1.5,0 0,-1 1,0 0,1 1.5,0 0,-5 z m -1,2 2,0 0,0.5 -2,0 z m 4,0.5 0,5 1.5,0 0,-1 1,0 0,1 1.5,0 0,-5 -2,-1.5 z m 1,0.5 2,0 0,0.5 -2,0 z m -5,1 2,0 0,0.5 -2,0 z m 5,1 2,0 0,0.5 -2,0 z" style="opacity:.3;color:#000;fill:#fff;fill-opacity:1;fill-rule:nonzero;stroke:#fff;stroke-width:2;stroke-linecap:round;stroke-linejoin:round;stroke-miterlimit:4;stroke-opacity:1;stroke-dasharray:none;stroke-dashoffset:0;marker:none;visibility:visible;display:inline;overflow:visible;enable-background:accumulate"/><rect id="rect5991-0-4" width="12" height="12" x="672" y="1290.362" style="opacity:.5;color:#000;fill:none;stroke:none;stroke-width:2;marker:none;visibility:visible;display:inline;overflow:visible;enable-background:accumulate"/><path style="color:#000;fill:#444;fill-opacity:1;fill-rule:nonzero;stroke:none;stroke-width:.46545455;marker:none;visibility:visible;display:inline;overflow:visible;enable-background:accumulate" id="path8893" d="m 676,1292.8622 -2,1.5 0,5 1.5,0 0,-1 1,0 0,1 1.5,0 0,-5 z m -1,2 2,0 0,0.5 -2,0 z m 4,0.5 0,5 1.5,0 0,-1 1,0 0,1 1.5,0 0,-5 -2,-1.5 z m 1,0.5 2,0 0,0.5 -2,0 z m -5,1 2,0 0,0.5 -2,0 z m 5,1 2,0 0,0.5 -2,0 z"/></g></g></svg>