<svg xmlns="http://www.w3.org/2000/svg" xmlns:svg="http://www.w3.org/2000/svg" id="svg4460" width="24" height="24" version="1.1"><metadata id="metadata4465"/><g id="layer1" transform="translate(0,-1028.3622)"><g style="display:inline" id="town-hall-24" transform="translate(-396,-70)"><g id="g16706"><path id="path5854" d="m 416,1106.3622 -7.5,-5 -7.5,5 0,2 0,7 -1.75,3 c -0.14834,0.2543 -0.25,0.3567 -0.25,0.5 0,0.5 0.63165,0.5 1,0.5 l 17,0 c 0.35499,0 1,0 1,-0.5 0,-0.1462 -0.0866,-0.2199 -0.25,-0.5 l -1.75,-3 0,-7 z m -12,3 c 0.554,0 0.90892,0.4535 1,1 l 0,6 -2,0 0,-2 0,-4 c 0,-0.554 0.446,-1 1,-1 z m 4.5,0 c 0.554,0 1.00866,0.4461 1,1 l 0,4 0,2 -2,0 0,-2 0,-4 c 0,-0.554 0.446,-1 1,-1 z m 4.5,0 c 0.554,0 1,0.446 1,1 l 0,6 -2,0 0,-2 0,-4 c 0,-0.554 0.446,-1 1,-1 z" style="opacity:.3;color:#000;fill:#fff;fill-opacity:1;fill-rule:nonzero;stroke:#fff;stroke-width:2;stroke-linecap:round;stroke-linejoin:round;stroke-miterlimit:4;stroke-opacity:1;stroke-dasharray:none;stroke-dashoffset:0;marker:none;visibility:visible;display:inline;overflow:visible;enable-background:accumulate"/><path style="color:#000;fill:#444;fill-opacity:1;fill-rule:nonzero;stroke:none;stroke-width:1;marker:none;visibility:visible;display:inline;overflow:visible;enable-background:accumulate" id="rect7645-6" d="m 408.5,1101.3622 -7.5,5 15,0 z m -6.5,6 c -0.55401,0 -1,0.446 -1,1 l 0,7 -1.75,3 c -0.14834,0.2543 -0.25,0.3567 -0.25,0.5 0,0.5 0.63165,0.5 1,0.5 l 17,0 c 0.35499,0 1,0 1,-0.5 0,-0.1462 -0.0866,-0.2199 -0.25,-0.5 l -1.75,-3 0,-7 c 0,-0.554 -0.44599,-1 -1,-1 z m 2,2 c 0.554,0 0.90892,0.4535 1,1 l 0,6 -2,0 0,-2 0,-4 c 0,-0.554 0.446,-1 1,-1 z m 4.5,0 c 0.554,0 1.00866,0.4461 1,1 l 0,4 0,2 -2,0 0,-2 0,-4 c 0,-0.554 0.446,-1 1,-1 z m 4.5,0 c 0.554,0 1,0.446 1,1 l 0,6 -2,0 0,-2 0,-4 c 0,-0.554 0.446,-1 1,-1 z"/></g><rect style="opacity:.5;color:#000;fill:none;stroke:none;stroke-width:2;marker:none;visibility:visible;display:inline;overflow:visible;enable-background:accumulate" id="rect22294-4" width="24" height="24" x="396" y="1098.362"/></g></g></svg>