<svg xmlns="http://www.w3.org/2000/svg" xmlns:svg="http://www.w3.org/2000/svg" id="svg4619" width="18" height="18" version="1.1"><metadata id="metadata4624"/><g id="layer1" transform="translate(0,-1034.3622)"><g style="display:inline" id="town-hall-18" transform="translate(-420,-64)"><g id="g21522" transform="translate(0,-2)"><path id="path14474" d="m 435,1105.3622 -5.5,-3 -5.5,3 0,1.9375 0,5.0625 -1,2.5 c 0,0.3611 0.23397,0.5 0.5,0.5 l 12,0 c 0.25638,0 0.5,-0.1389 0.5,-0.5 l -1,-2.5 0,-5.0625 z" style="opacity:.3;color:#000;fill:#fff;fill-opacity:1;fill-rule:nonzero;stroke:#fff;stroke-width:2;stroke-linecap:round;stroke-linejoin:round;stroke-miterlimit:4;stroke-opacity:1;stroke-dasharray:none;stroke-dashoffset:0;marker:none;visibility:visible;display:inline;overflow:visible;enable-background:accumulate"/><path style="color:#000;fill:#444;fill-opacity:1;fill-rule:nonzero;stroke:none;stroke-width:1;marker:none;visibility:visible;display:inline;overflow:visible;enable-background:accumulate" id="rect7645-6-5-0-1-2" d="m 429.5,1102.3622 -5.5,3 11,0 z m -4.5,4 c -0.5,0 -1,0.493 -1,0.9375 l 0,5.0625 -1,2.5 c 0,0.3611 0.23397,0.5 0.5,0.5 l 12,0 c 0.25638,0 0.5,-0.1389 0.5,-0.5 l -1,-2.5 0,-5.0625 c 0,-0.4445 -0.5,-0.9375 -1,-0.9375 z m 1.5,1 0.5,0.5 0,1.5 0,3 -1,0 0,-3 0,-1.5 z m 3,0 0.5,0.5 0,1.5 0,3 -1,0 0,-3 0,-1.5 z m 3,0 0.5,0.5 0,1.5 0,3 -1,0 0,-3 0,-1.5 z"/></g><rect id="rect22296-2" width="18" height="18" x="420" y="1098.362" style="opacity:.5;color:#000;fill:none;stroke:none;stroke-width:2;marker:none;visibility:visible;display:inline;overflow:visible;enable-background:accumulate"/></g></g></svg>